<svg width="1051" height="495" viewBox="0 0 1051 495" fill="none" xmlns="http://www.w3.org/2000/svg">
<path d="M1017.5 362L446.5 383.5" stroke="black" stroke-width="2.5" stroke-linecap="round"/>
<path d="M1018.5 364.5L552 108" stroke="black" stroke-width="2.5" stroke-linecap="round"/>
<g filter="url(#filter0_f)">
<path d="M225.585 470H1037L519.433 452.9L361.371 449.101C352.643 448.891 344.03 447.05 335.979 443.673L324.003 438.65L286.603 420.23C277.029 415.515 266.279 413.725 255.693 415.084L222.348 419.365C206.909 421.348 196.861 436.614 201.146 451.578C204.27 462.484 214.241 470 225.585 470Z" fill="url(#paint0_linear)" fill-opacity="0.5"/>
</g>
<g filter="url(#filter1_f)">
<path d="M61.4567 478.894L855.497 439.889L337.199 437.715L185.798 439.276C172.734 439.411 159.892 435.886 148.727 429.102L140.876 424.331L108.124 400.822C94.6304 391.136 77.5318 387.944 61.4522 392.109L48.7315 395.403C26.4961 401.162 12.8748 423.562 17.9925 445.954C22.5785 466.019 40.8987 479.903 61.4567 478.894Z" fill="url(#paint1_linear)" fill-opacity="0.5"/>
</g>
<g filter="url(#filter2_i)">
<path d="M526.969 70.3666C527.223 69.261 527.486 68.0538 528.416 67.4045C531.941 64.9436 537.177 68.2557 536.071 72.6916C535.92 73.3008 535.534 73.8166 535.116 74.2847C534.007 75.5245 531.91 78.1391 532.374 79.7088C532.998 81.8212 531.745 82.8291 531.745 82.8291L484.587 191.219C483.248 194.297 485.266 197.792 488.601 198.171L600.396 210.884C600.396 210.884 603.336 211.055 604.764 212.009C607.734 213.992 613.099 213.241 615.19 212.846C615.768 212.737 616.366 212.676 616.934 212.832C621.661 214.131 621.67 221.089 616.961 222.41C616.376 222.575 615.756 222.506 615.16 222.392C613.165 222.009 608.309 221.346 605.388 223.242C603.742 224.31 600.396 224.366 600.396 224.366L488.601 237.079C485.266 237.458 483.248 240.953 484.587 244.031L529.844 348.053C529.844 348.053 531.126 350.556 531.126 352.421C531.126 355.431 534.141 359.593 535.309 361.092C535.606 361.473 535.878 361.882 536.014 362.345C537.374 366.988 531.757 370.498 528.181 367.671C527.433 367.08 527.15 366.109 526.945 365.178C526.532 363.293 525.399 360.13 522.389 359.286C520.416 358.732 518.645 355.089 518.645 355.089L450.892 263.484C448.896 260.786 444.86 260.786 442.864 263.484L375.701 354.293C375.701 354.293 374.75 357.045 373.24 357.621C369.754 358.949 367.594 363.886 366.863 365.827C366.667 366.349 366.428 366.865 366.035 367.261C362.342 370.97 355.739 366.838 357.993 361.658C359.468 358.266 362.631 356.165 362.283 351.797C362.74 350.747 363.193 349.707 363.641 348.677C380.263 310.471 391.146 285.458 409.17 244.031C410.509 240.953 408.49 237.458 405.156 237.079L295.857 224.65C295.857 224.65 291.904 224.693 290.24 223.242C287.259 220.641 281.076 221.765 278.679 222.332C278.026 222.486 277.345 222.576 276.703 222.384C272.144 221.015 272.127 214.291 276.652 212.882C277.326 212.672 278.045 212.778 278.731 212.946C281.066 213.52 286.82 214.566 290.24 212.009C292.008 210.687 295.857 210.6 295.857 210.6L405.156 198.171C408.49 197.792 410.509 194.297 409.17 191.219C390.516 148.344 379.511 123.05 361.876 82.5171C361.651 81.9995 361.425 81.4795 361.197 80.9569C363.879 78.4607 359.086 76.1051 357.993 73.5918C355.832 68.6256 361.811 64.623 365.563 67.5692C366.321 68.1644 366.603 69.1457 366.807 70.0877C367.242 72.0968 368.492 75.5202 371.992 75.9419C372.566 76.0111 372.681 76.8746 373.03 77.3457C400.735 114.805 442.864 171.766 442.864 171.766C442.864 171.766 442.864 171.766 442.864 171.766C444.86 174.464 448.896 174.464 450.892 171.766L520.117 78.1694C520.117 78.1694 520.793 76.0443 521.941 75.7041C525.392 74.6817 526.57 72.1103 526.969 70.3666Z" fill="#8C6E51"/>
</g>
<path d="M367.623 72.8442C366.625 76.8381 362.215 77.0046 360.135 76.5885C333.924 121.52 282.003 211.884 284 213.881C285.997 215.878 284.832 219.705 284 221.369C307.506 266.301 355.891 356.165 361.383 356.165C366.874 356.165 368.663 359.494 368.871 361.158C420.252 362.822 523.387 365.152 524.885 361.158C526.383 357.164 530.502 356.581 532.374 356.789C559 312.481 611.878 223.491 610.381 221.993C608.883 220.496 609.341 215.545 609.757 213.257C585.835 167.077 537.241 74.8412 534.246 75.3404C531.251 75.8397 527.589 73.4682 526.133 72.2201C473.713 70.764 368.622 68.8502 367.623 72.8442Z" stroke="black" stroke-width="2.49622"/>
<g filter="url(#filter3_i)">
<path d="M589.868 130.141C590.641 129.31 591.472 128.396 592.602 128.299C596.885 127.93 599.764 133.417 596.589 136.706C596.152 137.157 595.561 137.411 594.964 137.607C593.385 138.127 590.261 139.343 589.878 140.934C589.362 143.075 587.773 143.322 587.773 143.322L492.738 213.611C490.039 215.607 490.039 219.643 492.738 221.639L583.199 288.546C583.199 288.546 585.66 290.164 586.42 291.704C588 294.907 593.021 296.939 595.03 297.642C595.585 297.837 596.133 298.083 596.547 298.502C599.991 301.991 596.52 308.021 591.781 306.811C591.193 306.66 590.69 306.291 590.231 305.894C588.695 304.565 584.821 301.563 581.344 301.744C579.384 301.846 576.458 300.222 576.458 300.222L473.284 255.334C470.207 253.995 466.711 256.013 466.332 259.347L453.515 372.062C453.515 372.062 453.373 374.87 452.441 376.485C450.936 379.092 451.466 384.204 451.728 386.086C451.795 386.565 451.826 387.055 451.712 387.524C450.568 392.225 443.949 392.457 442.266 388.22C441.913 387.334 442.153 386.352 442.442 385.443C443.026 383.604 443.627 380.298 441.442 378.062C440.01 376.596 440.297 372.556 440.297 372.556L427.425 259.347C427.045 256.013 423.55 253.995 420.472 255.334L316.903 300.394C316.903 300.394 314.703 302.302 313.108 302.045C309.425 301.453 305.086 304.648 303.482 305.964C303.051 306.318 302.586 306.646 302.048 306.791C296.995 308.158 293.343 301.278 297.885 297.919C300.858 295.719 304.648 295.481 306.531 291.524C307.451 290.843 308.363 290.168 309.267 289.5C342.764 264.725 364.696 248.504 401.019 221.639C403.717 219.643 403.717 215.607 401.019 213.611L312.577 148.198C312.577 148.198 309.133 146.259 308.418 144.17C307.136 140.428 301.219 138.31 298.86 137.601C298.217 137.409 297.583 137.147 297.123 136.658C293.859 133.193 297.206 127.362 301.83 128.404C302.518 128.56 303.088 129.011 303.597 129.499C305.333 131.164 309.793 134.947 314.034 134.442C316.226 134.181 319.602 136.03 319.602 136.03L420.472 179.916C423.55 181.255 427.045 179.237 427.425 175.903C432.707 129.444 435.824 102.037 440.818 58.1169C440.882 57.5561 440.946 56.9926 441.01 56.4264C444.581 55.6055 441.608 51.1691 441.918 48.4458C442.53 43.0647 449.709 42.5877 451.485 47.0151C451.844 47.9095 451.598 48.9006 451.303 49.8183C450.675 51.7755 450.046 55.3653 452.866 57.4805C453.328 57.8273 452.997 58.6332 453.063 59.2153C458.327 105.509 466.332 175.903 466.332 175.903C466.711 179.237 470.207 181.255 473.284 179.916L580.033 133.472C580.033 133.472 581.68 131.97 582.845 132.249C586.345 133.089 588.65 131.451 589.868 130.141Z" fill="#9F6C3D"/>
</g>
<path d="M450.632 52.6136C447.77 55.5732 443.868 53.5123 442.274 52.112C397.109 77.919 306.963 130.215 307.693 132.943C308.424 135.671 305.502 138.403 303.949 139.428C301.84 190.094 298.811 292.111 303.567 294.857C308.323 297.602 308.208 301.379 307.556 302.924C351.221 330.056 439.374 383.641 442.668 380.931C445.962 378.221 449.82 379.776 451.337 380.893C496.55 355.834 586.839 305.205 586.291 303.159C585.743 301.113 588.615 297.055 590.119 295.281C592.492 243.327 596.527 139.152 593.683 138.087C590.839 137.021 588.854 133.137 588.217 131.328C543.548 103.857 453.493 49.654 450.632 52.6136Z" stroke="black" stroke-width="2.49622"/>
<g filter="url(#filter4_iiii)">
<path fill-rule="evenodd" clip-rule="evenodd" d="M462.66 240.468C469.187 235.73 473.431 228.039 473.431 219.357C473.431 204.959 461.76 193.287 447.362 193.287C432.964 193.287 421.292 204.959 421.292 219.357C421.292 228.245 425.74 236.094 432.531 240.8C425.732 245.607 421.292 253.53 421.292 262.49V441.661H474.379V262.49C474.379 253.321 469.73 245.237 462.66 240.468Z" fill="#B46835"/>
</g>
<g filter="url(#filter5_dii)">
<path d="M473.713 419.195H1009.15C1026.38 419.195 1040.35 433.165 1040.35 450.398H473.713V419.195Z" fill="#B46835"/>
</g>
<path d="M1011.65 360.534C1011.65 357.776 1013.88 355.541 1016.64 355.541C1019.4 355.541 1021.63 357.776 1021.63 360.534V441.661H1011.65V360.534Z" fill="#B46835"/>
<g filter="url(#filter6_ii)">
<path d="M402.57 451.646C402.57 446.131 407.041 441.661 412.555 441.661H481.201C486.716 441.661 491.186 446.131 491.186 451.646V472.864H402.57V451.646Z" fill="#B46835"/>
</g>
<g filter="url(#filter7_dii)">
<path d="M989.182 422.939C989.182 417.425 993.653 412.954 999.167 412.954H1030.37C1035.88 412.954 1040.35 417.425 1040.35 422.939V465.375H989.182V422.939Z" fill="#B46835"/>
</g>
<g filter="url(#filter8_ii)">
<path d="M989.182 451.646C989.182 446.131 993.653 441.661 999.167 441.661H1030.37C1035.88 441.661 1040.35 446.131 1040.35 451.646V472.864H989.182V451.646Z" fill="#B46835"/>
</g>
<g filter="url(#filter9_ii)">
<path d="M421.292 466.623C421.292 461.109 425.762 456.638 431.277 456.638H464.976C470.49 456.638 474.961 461.109 474.961 466.623V472.864H421.292V466.623Z" fill="#B46835"/>
</g>
<g filter="url(#filter10_ii)">
<path d="M1002.91 466.623C1002.91 461.109 1007.38 456.638 1012.9 456.638H1017.89C1023.4 456.638 1027.87 461.109 1027.87 466.623V472.864H1002.91V466.623Z" fill="#B46835"/>
</g>
<defs>
<filter id="filter0_f" x="186.153" y="400.642" width="864.847" height="83.3583" filterUnits="userSpaceOnUse" color-interpolation-filters="sRGB">
<feFlood flood-opacity="0" result="BackgroundImageFix"/>
<feBlend mode="normal" in="SourceGraphic" in2="BackgroundImageFix" result="shape"/>
<feGaussianBlur stdDeviation="7" result="effect1_foregroundBlur"/>
</filter>
<filter id="filter1_f" x="0.742737" y="338.149" width="868.755" height="156.827" filterUnits="userSpaceOnUse" color-interpolation-filters="sRGB">
<feFlood flood-opacity="0" result="BackgroundImageFix"/>
<feBlend mode="normal" in="SourceGraphic" in2="BackgroundImageFix" result="shape"/>
<feGaussianBlur stdDeviation="7" result="effect1_foregroundBlur"/>
</filter>
<filter id="filter2_i" x="273.271" y="66.5657" width="347.215" height="302.119" filterUnits="userSpaceOnUse" color-interpolation-filters="sRGB">
<feFlood flood-opacity="0" result="BackgroundImageFix"/>
<feBlend mode="normal" in="SourceGraphic" in2="BackgroundImageFix" result="shape"/>
<feColorMatrix in="SourceAlpha" type="matrix" values="0 0 0 0 0 0 0 0 0 0 0 0 0 0 0 0 0 0 127 0" result="hardAlpha"/>
<feOffset/>
<feGaussianBlur stdDeviation="7.48866"/>
<feComposite in2="hardAlpha" operator="arithmetic" k2="-1" k3="1"/>
<feColorMatrix type="matrix" values="0 0 0 0 0 0 0 0 0 0 0 0 0 0 0 0 0 0 0.25 0"/>
<feBlend mode="normal" in2="shape" result="effect1_innerShadow"/>
</filter>
<filter id="filter3_i" x="221" y="0" width="451.756" height="435.25" filterUnits="userSpaceOnUse" color-interpolation-filters="sRGB">
<feFlood flood-opacity="0" result="BackgroundImageFix"/>
<feBlend mode="normal" in="SourceGraphic" in2="BackgroundImageFix" result="shape"/>
<feColorMatrix in="SourceAlpha" type="matrix" values="0 0 0 0 0 0 0 0 0 0 0 0 0 0 0 0 0 0 127 0" result="hardAlpha"/>
<feOffset/>
<feGaussianBlur stdDeviation="7.48866"/>
<feComposite in2="hardAlpha" operator="arithmetic" k2="-1" k3="1"/>
<feColorMatrix type="matrix" values="0 0 0 0 0 0 0 0 0 0 0 0 0 0 0 0 0 0 0.25 0"/>
<feBlend mode="normal" in2="shape" result="effect1_innerShadow"/>
</filter>
<filter id="filter4_iiii" x="420.044" y="192.039" width="64.3206" height="250.87" filterUnits="userSpaceOnUse" color-interpolation-filters="sRGB">
<feFlood flood-opacity="0" result="BackgroundImageFix"/>
<feBlend mode="normal" in="SourceGraphic" in2="BackgroundImageFix" result="shape"/>
<feColorMatrix in="SourceAlpha" type="matrix" values="0 0 0 0 0 0 0 0 0 0 0 0 0 0 0 0 0 0 127 0" result="hardAlpha"/>
<feOffset dx="9.98488"/>
<feGaussianBlur stdDeviation="33.699"/>
<feComposite in2="hardAlpha" operator="arithmetic" k2="-1" k3="1"/>
<feColorMatrix type="matrix" values="0 0 0 0 1 0 0 0 0 1 0 0 0 0 1 0 0 0 0.25 0"/>
<feBlend mode="normal" in2="shape" result="effect1_innerShadow"/>
<feColorMatrix in="SourceAlpha" type="matrix" values="0 0 0 0 0 0 0 0 0 0 0 0 0 0 0 0 0 0 127 0" result="hardAlpha"/>
<feOffset/>
<feGaussianBlur stdDeviation="11.233"/>
<feComposite in2="hardAlpha" operator="arithmetic" k2="-1" k3="1"/>
<feColorMatrix type="matrix" values="0 0 0 0 0 0 0 0 0 0 0 0 0 0 0 0 0 0 0.25 0"/>
<feBlend mode="normal" in2="effect1_innerShadow" result="effect2_innerShadow"/>
<feColorMatrix in="SourceAlpha" type="matrix" values="0 0 0 0 0 0 0 0 0 0 0 0 0 0 0 0 0 0 127 0" result="hardAlpha"/>
<feOffset dx="1.24811" dy="1.24811"/>
<feGaussianBlur stdDeviation="1.24811"/>
<feComposite in2="hardAlpha" operator="arithmetic" k2="-1" k3="1"/>
<feColorMatrix type="matrix" values="0 0 0 0 0 0 0 0 0 0 0 0 0 0 0 0 0 0 0.25 0"/>
<feBlend mode="normal" in2="effect2_innerShadow" result="effect3_innerShadow"/>
<feColorMatrix in="SourceAlpha" type="matrix" values="0 0 0 0 0 0 0 0 0 0 0 0 0 0 0 0 0 0 127 0" result="hardAlpha"/>
<feOffset dx="-1.24811" dy="-1.24811"/>
<feGaussianBlur stdDeviation="1.24811"/>
<feComposite in2="hardAlpha" operator="arithmetic" k2="-1" k3="1"/>
<feColorMatrix type="matrix" values="0 0 0 0 0 0 0 0 0 0 0 0 0 0 0 0 0 0 0.25 0"/>
<feBlend mode="normal" in2="effect3_innerShadow" result="effect4_innerShadow"/>
</filter>
<filter id="filter5_dii" x="454.991" y="406.714" width="592.852" height="56.165" filterUnits="userSpaceOnUse" color-interpolation-filters="sRGB">
<feFlood flood-opacity="0" result="BackgroundImageFix"/>
<feColorMatrix in="SourceAlpha" type="matrix" values="0 0 0 0 0 0 0 0 0 0 0 0 0 0 0 0 0 0 127 0" result="hardAlpha"/>
<feOffset dx="-6.24055"/>
<feGaussianBlur stdDeviation="6.24055"/>
<feComposite in2="hardAlpha" operator="out"/>
<feColorMatrix type="matrix" values="0 0 0 0 0 0 0 0 0 0 0 0 0 0 0 0 0 0 0.25 0"/>
<feBlend mode="normal" in2="BackgroundImageFix" result="effect1_dropShadow"/>
<feBlend mode="normal" in="SourceGraphic" in2="effect1_dropShadow" result="shape"/>
<feColorMatrix in="SourceAlpha" type="matrix" values="0 0 0 0 0 0 0 0 0 0 0 0 0 0 0 0 0 0 127 0" result="hardAlpha"/>
<feOffset/>
<feGaussianBlur stdDeviation="9.36083"/>
<feComposite in2="hardAlpha" operator="arithmetic" k2="-1" k3="1"/>
<feColorMatrix type="matrix" values="0 0 0 0 0 0 0 0 0 0 0 0 0 0 0 0 0 0 0.25 0"/>
<feBlend mode="normal" in2="shape" result="effect2_innerShadow"/>
<feColorMatrix in="SourceAlpha" type="matrix" values="0 0 0 0 0 0 0 0 0 0 0 0 0 0 0 0 0 0 127 0" result="hardAlpha"/>
<feOffset dx="7.48866"/>
<feGaussianBlur stdDeviation="6.24055"/>
<feComposite in2="hardAlpha" operator="arithmetic" k2="-1" k3="1"/>
<feColorMatrix type="matrix" values="0 0 0 0 0 0 0 0 0 0 0 0 0 0 0 0 0 0 0.25 0"/>
<feBlend mode="normal" in2="effect2_innerShadow" result="effect3_innerShadow"/>
</filter>
<filter id="filter6_ii" x="402.57" y="441.661" width="88.6158" height="38.6914" filterUnits="userSpaceOnUse" color-interpolation-filters="sRGB">
<feFlood flood-opacity="0" result="BackgroundImageFix"/>
<feBlend mode="normal" in="SourceGraphic" in2="BackgroundImageFix" result="shape"/>
<feColorMatrix in="SourceAlpha" type="matrix" values="0 0 0 0 0 0 0 0 0 0 0 0 0 0 0 0 0 0 127 0" result="hardAlpha"/>
<feOffset/>
<feGaussianBlur stdDeviation="9.36083"/>
<feComposite in2="hardAlpha" operator="arithmetic" k2="-1" k3="1"/>
<feColorMatrix type="matrix" values="0 0 0 0 0 0 0 0 0 0 0 0 0 0 0 0 0 0 0.25 0"/>
<feBlend mode="normal" in2="shape" result="effect1_innerShadow"/>
<feColorMatrix in="SourceAlpha" type="matrix" values="0 0 0 0 0 0 0 0 0 0 0 0 0 0 0 0 0 0 127 0" result="hardAlpha"/>
<feOffset dy="7.48866"/>
<feGaussianBlur stdDeviation="4.36839"/>
<feComposite in2="hardAlpha" operator="arithmetic" k2="-1" k3="1"/>
<feColorMatrix type="matrix" values="0 0 0 0 0 0 0 0 0 0 0 0 0 0 0 0 0 0 0.25 0"/>
<feBlend mode="normal" in2="effect1_innerShadow" result="effect2_innerShadow"/>
</filter>
<filter id="filter7_dii" x="984.19" y="411.706" width="61.1574" height="63.6536" filterUnits="userSpaceOnUse" color-interpolation-filters="sRGB">
<feFlood flood-opacity="0" result="BackgroundImageFix"/>
<feColorMatrix in="SourceAlpha" type="matrix" values="0 0 0 0 0 0 0 0 0 0 0 0 0 0 0 0 0 0 127 0" result="hardAlpha"/>
<feOffset dy="4.99244"/>
<feGaussianBlur stdDeviation="2.49622"/>
<feComposite in2="hardAlpha" operator="out"/>
<feColorMatrix type="matrix" values="0 0 0 0 0 0 0 0 0 0 0 0 0 0 0 0 0 0 0.25 0"/>
<feBlend mode="normal" in2="BackgroundImageFix" result="effect1_dropShadow"/>
<feBlend mode="normal" in="SourceGraphic" in2="effect1_dropShadow" result="shape"/>
<feColorMatrix in="SourceAlpha" type="matrix" values="0 0 0 0 0 0 0 0 0 0 0 0 0 0 0 0 0 0 127 0" result="hardAlpha"/>
<feOffset dx="-1.24811" dy="-1.24811"/>
<feGaussianBlur stdDeviation="1.24811"/>
<feComposite in2="hardAlpha" operator="arithmetic" k2="-1" k3="1"/>
<feColorMatrix type="matrix" values="0 0 0 0 0 0 0 0 0 0 0 0 0 0 0 0 0 0 0.25 0"/>
<feBlend mode="normal" in2="shape" result="effect2_innerShadow"/>
<feColorMatrix in="SourceAlpha" type="matrix" values="0 0 0 0 0 0 0 0 0 0 0 0 0 0 0 0 0 0 127 0" result="hardAlpha"/>
<feOffset dx="1.24811" dy="1.24811"/>
<feGaussianBlur stdDeviation="1.24811"/>
<feComposite in2="hardAlpha" operator="arithmetic" k2="-1" k3="1"/>
<feColorMatrix type="matrix" values="0 0 0 0 0 0 0 0 0 0 0 0 0 0 0 0 0 0 0.25 0"/>
<feBlend mode="normal" in2="effect2_innerShadow" result="effect3_innerShadow"/>
</filter>
<filter id="filter8_ii" x="989.182" y="441.661" width="51.1725" height="38.6914" filterUnits="userSpaceOnUse" color-interpolation-filters="sRGB">
<feFlood flood-opacity="0" result="BackgroundImageFix"/>
<feBlend mode="normal" in="SourceGraphic" in2="BackgroundImageFix" result="shape"/>
<feColorMatrix in="SourceAlpha" type="matrix" values="0 0 0 0 0 0 0 0 0 0 0 0 0 0 0 0 0 0 127 0" result="hardAlpha"/>
<feOffset/>
<feGaussianBlur stdDeviation="9.36083"/>
<feComposite in2="hardAlpha" operator="arithmetic" k2="-1" k3="1"/>
<feColorMatrix type="matrix" values="0 0 0 0 0 0 0 0 0 0 0 0 0 0 0 0 0 0 0.25 0"/>
<feBlend mode="normal" in2="shape" result="effect1_innerShadow"/>
<feColorMatrix in="SourceAlpha" type="matrix" values="0 0 0 0 0 0 0 0 0 0 0 0 0 0 0 0 0 0 127 0" result="hardAlpha"/>
<feOffset dy="7.48866"/>
<feGaussianBlur stdDeviation="4.36839"/>
<feComposite in2="hardAlpha" operator="arithmetic" k2="-1" k3="1"/>
<feColorMatrix type="matrix" values="0 0 0 0 0 0 0 0 0 0 0 0 0 0 0 0 0 0 0.25 0"/>
<feBlend mode="normal" in2="effect1_innerShadow" result="effect2_innerShadow"/>
</filter>
<filter id="filter9_ii" x="416.299" y="456.638" width="64.9017" height="22.466" filterUnits="userSpaceOnUse" color-interpolation-filters="sRGB">
<feFlood flood-opacity="0" result="BackgroundImageFix"/>
<feBlend mode="normal" in="SourceGraphic" in2="BackgroundImageFix" result="shape"/>
<feColorMatrix in="SourceAlpha" type="matrix" values="0 0 0 0 0 0 0 0 0 0 0 0 0 0 0 0 0 0 127 0" result="hardAlpha"/>
<feOffset dx="7.48866" dy="7.48866"/>
<feGaussianBlur stdDeviation="3.12028"/>
<feComposite in2="hardAlpha" operator="arithmetic" k2="-1" k3="1"/>
<feColorMatrix type="matrix" values="0 0 0 0 0 0 0 0 0 0 0 0 0 0 0 0 0 0 0.25 0"/>
<feBlend mode="normal" in2="shape" result="effect1_innerShadow"/>
<feColorMatrix in="SourceAlpha" type="matrix" values="0 0 0 0 0 0 0 0 0 0 0 0 0 0 0 0 0 0 127 0" result="hardAlpha"/>
<feOffset dx="-4.99244"/>
<feGaussianBlur stdDeviation="3.74433"/>
<feComposite in2="hardAlpha" operator="arithmetic" k2="-1" k3="1"/>
<feColorMatrix type="matrix" values="0 0 0 0 0 0 0 0 0 0 0 0 0 0 0 0 0 0 0.25 0"/>
<feBlend mode="normal" in2="effect1_innerShadow" result="effect2_innerShadow"/>
</filter>
<filter id="filter10_ii" x="997.919" y="456.638" width="36.1952" height="22.466" filterUnits="userSpaceOnUse" color-interpolation-filters="sRGB">
<feFlood flood-opacity="0" result="BackgroundImageFix"/>
<feBlend mode="normal" in="SourceGraphic" in2="BackgroundImageFix" result="shape"/>
<feColorMatrix in="SourceAlpha" type="matrix" values="0 0 0 0 0 0 0 0 0 0 0 0 0 0 0 0 0 0 127 0" result="hardAlpha"/>
<feOffset dx="7.48866" dy="7.48866"/>
<feGaussianBlur stdDeviation="3.12028"/>
<feComposite in2="hardAlpha" operator="arithmetic" k2="-1" k3="1"/>
<feColorMatrix type="matrix" values="0 0 0 0 0 0 0 0 0 0 0 0 0 0 0 0 0 0 0.25 0"/>
<feBlend mode="normal" in2="shape" result="effect1_innerShadow"/>
<feColorMatrix in="SourceAlpha" type="matrix" values="0 0 0 0 0 0 0 0 0 0 0 0 0 0 0 0 0 0 127 0" result="hardAlpha"/>
<feOffset dx="-4.99244"/>
<feGaussianBlur stdDeviation="3.74433"/>
<feComposite in2="hardAlpha" operator="arithmetic" k2="-1" k3="1"/>
<feColorMatrix type="matrix" values="0 0 0 0 0 0 0 0 0 0 0 0 0 0 0 0 0 0 0.25 0"/>
<feBlend mode="normal" in2="effect1_innerShadow" result="effect2_innerShadow"/>
</filter>
<linearGradient id="paint0_linear" x1="410.443" y1="423.133" x2="816.109" y2="444.939" gradientUnits="userSpaceOnUse">
<stop stop-opacity="0"/>
<stop offset="1"/>
</linearGradient>
<linearGradient id="paint1_linear" x1="225.983" y1="395.076" x2="632.546" y2="388.656" gradientUnits="userSpaceOnUse">
<stop stop-opacity="0"/>
<stop offset="1"/>
</linearGradient>
</defs>
</svg>
