<svg width="1280" height="596" viewBox="0 0 1280 596" fill="none" xmlns="http://www.w3.org/2000/svg">
<mask id="mask0" style="mask-type:alpha" maskUnits="userSpaceOnUse" x="0" y="0" width="1281" height="596">
<rect width="1281" height="596" fill="#C4C4C4"/>
</mask>
<g mask="url(#mask0)">
<rect y="4" width="1290" height="592" fill="#C6DCBE"/>
<path d="M681 334C682.667 311.167 696.9 269.6 740.5 286L748.369 286.828C755.106 287.538 760.752 292.237 762.671 298.734C764.519 304.988 761.015 311.569 754.794 313.528L739 318.5C737.259 321.981 738.515 333.677 738.626 343.586C738.729 352.879 722.984 345.928 725 355C727.438 367.352 721.508 380.338 707.117 366.139C709.192 371.48 712.715 383.222 712.215 392.06C712.006 395.747 709.809 398.099 706.122 398.318C701.011 398.621 695.311 394.35 693.152 389.707C692.497 388.298 691.782 386.586 691 384.5C688.35 377.433 690.667 366.167 688 361L685.5 354L681 334Z" fill="#DF4B4B"/>
<g filter="url(#filter0_dddd)">
<path d="M792.596 230.189C768.245 225.916 765.47 245.551 767.127 255.902C764.94 276.472 768.7 286.583 770.854 289.068C777.314 294.533 774.705 335.566 772.593 355.399C770.406 373.584 778.06 380.201 782.16 381.236C786.632 388.987 778.805 390.842 774.332 390.801C773.835 395.67 767.085 392.83 763.772 390.801C760.194 396.366 755.986 390.138 754.33 386.329C747.571 390.801 746.461 385.46 746.751 382.23C757.486 378.156 759.921 370.761 759.796 367.572C755.224 357.635 753.584 314.491 753.336 294.161C746.677 302.806 730.848 314.988 723.767 319.998C711.243 344.543 690.967 360.202 682.395 364.964C675.636 380.665 642.804 409.682 627.232 422.228C644.328 436.935 639.325 447.154 634.687 450.425C624.847 454.002 608.141 440.073 601.018 432.662C595.949 428.488 619.861 402.684 632.45 390.304C643.259 380.615 670.753 337.139 670.965 337.139C663.809 336.941 647.194 357.262 639.781 367.448C627.754 394.478 596.338 410.758 582.133 415.52C563.646 404.39 559.687 386.536 560.019 379C567.572 370.057 581.802 379.332 587.973 385.087C587.376 374.156 622.263 345.255 639.781 332.171C637.097 321.935 664.918 296.604 679.165 285.217C682.445 275.081 693.866 256.979 699.167 249.194C674.319 250.586 640.857 266.336 627.232 274.038C623.654 273.541 624.582 276.646 625.493 278.261C626.586 287.701 620.482 288.488 617.293 287.701C614.113 290.782 609.176 290.393 607.105 289.813C602.633 287.826 602.591 280.621 603.13 277.267C600.049 273.292 601.846 270.394 603.13 269.442C598.657 270.237 597.622 263.893 597.663 260.622C604.72 256.15 613.69 258.759 617.293 260.622C622.76 253.964 635.474 250.975 641.147 250.312C656.652 240.077 685.377 235.448 697.801 234.413C704.858 226.96 715.319 226.918 719.667 227.829C751.174 232.202 757.726 225.262 757.063 221.246C743.844 204.253 756.939 190.233 765.139 185.347C793.764 167.559 808.043 186.217 811.605 197.769C817.866 220.923 801.541 229.03 792.596 230.189Z" stroke="black" stroke-width="2.5" stroke-linecap="round" stroke-dasharray="22 22" shape-rendering="crispEdges"/>
</g>
<path d="M249.72 213.577C224.886 227.916 234.938 252.688 243.068 263.282C237.746 274.368 240.851 283.422 243.068 286.564C254.45 298.241 264.563 287.241 268.197 280.281C265.241 268.308 269.429 256.568 271.893 252.195C277.658 211.101 259.513 209.328 249.72 213.577Z" stroke="black" stroke-opacity="0.3" stroke-width="2.5" stroke-linecap="round" stroke-dasharray="8 8"/>
<path d="M243.068 247.761C239.311 239.692 237.635 223.814 260.991 224.849C263.024 225.095 266.165 228.396 262.469 239.631" stroke="black" stroke-opacity="0.3" stroke-width="2.5" stroke-linecap="round" stroke-dasharray="8 8"/>
<path d="M243.992 244.435C243.684 239.569 245.618 230.798 255.817 234.642C257.296 236.859 259.513 242.181 256.556 245.728" stroke="black" stroke-opacity="0.3" stroke-width="2.5" stroke-linecap="round" stroke-dasharray="8 8"/>
<path d="M250.089 251.641C249.473 245.975 249.646 237.376 255.263 248.315" stroke="black" stroke-opacity="0.3" stroke-width="2.5" stroke-linecap="round" stroke-dasharray="8 8"/>
<path d="M261.73 273.814C260.498 279.419 255.411 288.3 244.916 278.988" stroke="black" stroke-opacity="0.3" stroke-width="2.5" stroke-linecap="round" stroke-dasharray="8 8"/>
<path d="M256.002 272.705C255.325 276.154 252.676 281.759 247.502 276.586" stroke="black" stroke-opacity="0.3" stroke-width="2.5" stroke-linecap="round" stroke-dasharray="8 8"/>
<path d="M243.992 275.292C246.455 272.582 251.641 269.084 252.676 276.771" stroke="black" stroke-opacity="0.3" stroke-width="2.5" stroke-linecap="round" stroke-dasharray="8 8"/>
<path d="M251.198 261.065L265.241 251.826C259.944 257.184 250.163 267.975 253.415 268.271C256.667 268.567 259.082 268.394 259.882 268.271" stroke="black" stroke-opacity="0.3" stroke-width="2.5" stroke-linecap="round" stroke-dasharray="8 8"/>
<path d="M1064.45 420.847C1049.91 445.562 1070.87 462.163 1083.16 467.374C1084 479.643 1091.16 485.991 1094.64 487.632C1110.3 492.183 1113.67 477.627 1113.41 469.78C1104.93 460.819 1102.79 448.54 1102.78 443.521C1087.54 404.923 1070.88 412.322 1064.45 420.847Z" stroke="black" stroke-opacity="0.3" stroke-width="2.5" stroke-linecap="round" stroke-dasharray="8 8"/>
<path d="M1075.51 453.869C1068.27 448.7 1058.98 435.709 1079.82 425.099C1081.71 424.312 1086.07 425.636 1088.39 437.233" stroke="black" stroke-opacity="0.3" stroke-width="2.5" stroke-linecap="round" stroke-dasharray="8 8"/>
<path d="M1074.68 450.519C1072.01 446.437 1069.37 437.853 1080.14 436.17C1082.52 437.371 1087.07 440.908 1086.25 445.452" stroke="black" stroke-opacity="0.3" stroke-width="2.5" stroke-linecap="round" stroke-dasharray="8 8"/>
<path d="M1083.54 453.784C1080.21 449.158 1076.12 441.591 1086.4 448.341" stroke="black" stroke-opacity="0.3" stroke-width="2.5" stroke-linecap="round" stroke-dasharray="8 8"/>
<path d="M1104.59 467.341C1106.28 472.825 1106.23 483.06 1092.51 480.129" stroke="black" stroke-opacity="0.3" stroke-width="2.5" stroke-linecap="round" stroke-dasharray="8 8"/>
<path d="M1099.06 469.199C1100.17 472.534 1100.63 478.716 1093.58 476.764" stroke="black" stroke-opacity="0.3" stroke-width="2.5" stroke-linecap="round" stroke-dasharray="8 8"/>
<path d="M1089.89 477.369C1090.69 473.797 1093.48 468.197 1098.17 474.375" stroke="black" stroke-opacity="0.3" stroke-width="2.5" stroke-linecap="round" stroke-dasharray="8 8"/>
<path d="M1089.14 461.438L1096.81 446.478C1094.84 453.751 1091.65 467.961 1094.63 466.615C1097.6 465.27 1099.62 463.93 1100.25 463.428" stroke="black" stroke-opacity="0.3" stroke-width="2.5" stroke-linecap="round" stroke-dasharray="8 8"/>
<path d="M511.455 32.8464C496.913 57.5618 517.868 74.1626 530.163 79.3735C530.997 91.6428 538.16 97.9909 541.637 99.6314C557.296 104.183 560.675 89.627 560.407 81.7801C551.933 72.8189 549.792 60.5401 549.78 55.5208C534.544 16.923 517.881 24.3221 511.455 32.8464Z" stroke="black" stroke-opacity="0.3" stroke-width="2.5" stroke-linecap="round" stroke-dasharray="8 8"/>
<path d="M522.514 65.8684C515.268 60.6995 505.985 47.7091 526.817 37.0988C528.707 36.3115 533.067 37.6359 535.388 49.2324" stroke="black" stroke-opacity="0.3" stroke-width="2.5" stroke-linecap="round" stroke-dasharray="8 8"/>
<path d="M521.678 62.5192C519.012 58.4372 516.373 49.8525 527.142 48.1699C529.521 49.3707 534.073 52.9083 533.249 57.4522" stroke="black" stroke-opacity="0.3" stroke-width="2.5" stroke-linecap="round" stroke-dasharray="8 8"/>
<path d="M530.535 65.7842C527.207 61.1573 523.119 53.5908 533.398 60.3404" stroke="black" stroke-opacity="0.3" stroke-width="2.5" stroke-linecap="round" stroke-dasharray="8 8"/>
<path d="M551.592 79.3403C553.283 84.8243 553.233 95.0596 539.511 92.1289" stroke="black" stroke-opacity="0.3" stroke-width="2.5" stroke-linecap="round" stroke-dasharray="8 8"/>
<path d="M546.062 81.1987C547.172 84.5338 547.63 90.7159 540.578 88.764" stroke="black" stroke-opacity="0.3" stroke-width="2.5" stroke-linecap="round" stroke-dasharray="8 8"/>
<path d="M536.886 89.3686C537.694 85.7963 540.483 80.1964 545.171 86.3747" stroke="black" stroke-opacity="0.3" stroke-width="2.5" stroke-linecap="round" stroke-dasharray="8 8"/>
<path d="M536.144 73.4375L543.81 58.4778C541.842 65.7508 538.65 79.9605 541.625 78.615C544.601 77.2695 546.616 75.9295 547.252 75.4277" stroke="black" stroke-opacity="0.3" stroke-width="2.5" stroke-linecap="round" stroke-dasharray="8 8"/>
<path d="M1110.45 130.846C1095.91 155.562 1116.87 172.163 1129.16 177.374C1130 189.643 1137.16 195.991 1140.64 197.631C1156.3 202.183 1159.67 187.627 1159.41 179.78C1150.93 170.819 1148.79 158.54 1148.78 153.521C1133.54 114.923 1116.88 122.322 1110.45 130.846Z" stroke="black" stroke-opacity="0.3" stroke-width="2.5" stroke-linecap="round" stroke-dasharray="8 8"/>
<path d="M1121.51 163.868C1114.27 158.699 1104.98 145.709 1125.82 135.099C1127.71 134.311 1132.07 135.636 1134.39 147.232" stroke="black" stroke-opacity="0.3" stroke-width="2.5" stroke-linecap="round" stroke-dasharray="8 8"/>
<path d="M1120.68 160.519C1118.01 156.437 1115.37 147.853 1126.14 146.17C1128.52 147.371 1133.07 150.908 1132.25 155.452" stroke="black" stroke-opacity="0.3" stroke-width="2.5" stroke-linecap="round" stroke-dasharray="8 8"/>
<path d="M1129.54 163.784C1126.21 159.157 1122.12 151.591 1132.4 158.34" stroke="black" stroke-opacity="0.3" stroke-width="2.5" stroke-linecap="round" stroke-dasharray="8 8"/>
<path d="M1150.59 177.34C1152.28 182.824 1152.23 193.06 1138.51 190.129" stroke="black" stroke-opacity="0.3" stroke-width="2.5" stroke-linecap="round" stroke-dasharray="8 8"/>
<path d="M1145.06 179.199C1146.17 182.534 1146.63 188.716 1139.58 186.764" stroke="black" stroke-opacity="0.3" stroke-width="2.5" stroke-linecap="round" stroke-dasharray="8 8"/>
<path d="M1135.89 187.369C1136.69 183.796 1139.48 178.196 1144.17 184.375" stroke="black" stroke-opacity="0.3" stroke-width="2.5" stroke-linecap="round" stroke-dasharray="8 8"/>
<path d="M1135.14 171.437L1142.81 156.478C1140.84 163.751 1137.65 177.96 1140.63 176.615C1143.6 175.269 1145.62 173.93 1146.25 173.428" stroke="black" stroke-opacity="0.3" stroke-width="2.5" stroke-linecap="round" stroke-dasharray="8 8"/>
<path d="M968.454 184.846C953.913 209.562 974.868 226.163 987.163 231.374C987.996 243.643 995.16 249.991 998.637 251.631C1014.3 256.183 1017.67 241.627 1017.41 233.78C1008.93 224.819 1006.79 212.54 1006.78 207.521C991.544 168.923 974.881 176.322 968.454 184.846Z" stroke="black" stroke-opacity="0.3" stroke-width="2.5" stroke-linecap="round" stroke-dasharray="8 8"/>
<path d="M979.513 217.868C972.268 212.699 962.985 199.709 983.817 189.099C985.707 188.311 990.067 189.636 992.388 201.232" stroke="black" stroke-opacity="0.3" stroke-width="2.5" stroke-linecap="round" stroke-dasharray="8 8"/>
<path d="M978.678 214.519C976.012 210.437 973.372 201.853 984.141 200.17C986.52 201.371 991.072 204.908 990.248 209.452" stroke="black" stroke-opacity="0.3" stroke-width="2.5" stroke-linecap="round" stroke-dasharray="8 8"/>
<path d="M987.535 217.784C984.207 213.157 980.119 205.591 990.398 212.34" stroke="black" stroke-opacity="0.3" stroke-width="2.5" stroke-linecap="round" stroke-dasharray="8 8"/>
<path d="M1008.59 231.34C1010.28 236.824 1010.23 247.06 996.511 244.129" stroke="black" stroke-opacity="0.3" stroke-width="2.5" stroke-linecap="round" stroke-dasharray="8 8"/>
<path d="M1003.06 233.199C1004.17 236.534 1004.63 242.716 997.578 240.764" stroke="black" stroke-opacity="0.3" stroke-width="2.5" stroke-linecap="round" stroke-dasharray="8 8"/>
<path d="M993.886 241.369C994.694 237.796 997.482 232.196 1002.17 238.375" stroke="black" stroke-opacity="0.3" stroke-width="2.5" stroke-linecap="round" stroke-dasharray="8 8"/>
<path d="M993.144 225.437L1000.81 210.478C998.842 217.751 995.65 231.96 998.625 230.615C1001.6 229.269 1003.62 227.93 1004.25 227.428" stroke="black" stroke-opacity="0.3" stroke-width="2.5" stroke-linecap="round" stroke-dasharray="8 8"/>
<path d="M106.517 221.041C102.474 192.652 75.7406 192.74 62.8791 196.333C54.5769 187.261 45.0184 186.765 41.277 187.651C26.1969 193.857 32.6321 207.343 37.7347 213.31C49.9469 215.032 59.2775 223.296 62.4163 227.213C98.3958 247.887 106.808 231.712 106.517 221.041Z" stroke="black" stroke-opacity="0.3" stroke-width="2.5" stroke-linecap="round" stroke-dasharray="8 8"/>
<path d="M77.2805 202.121C86.168 201.644 101.526 206.011 91.8557 227.296C90.8691 229.09 86.6345 230.773 77.5888 223.155" stroke="black" stroke-opacity="0.3" stroke-width="2.5" stroke-linecap="round" stroke-dasharray="8 8"/>
<path d="M80.022 204.219C84.6516 205.747 92.0683 210.813 84.6985 218.843C82.0899 219.388 76.3254 219.461 74.1361 215.395" stroke="black" stroke-opacity="0.3" stroke-width="2.5" stroke-linecap="round" stroke-dasharray="8 8"/>
<path d="M71.0616 207.189C76.549 208.731 84.4626 212.097 72.2183 213.23" stroke="black" stroke-opacity="0.3" stroke-width="2.5" stroke-linecap="round" stroke-dasharray="8 8"/>
<path d="M46.147 209.721C41.4059 206.488 35.0623 198.455 47.6171 192.19" stroke="black" stroke-opacity="0.3" stroke-width="2.5" stroke-linecap="round" stroke-dasharray="8 8"/>
<path d="M49.3118 204.82C46.3642 202.905 42.1513 198.357 48.8812 195.486" stroke="black" stroke-opacity="0.3" stroke-width="2.5" stroke-linecap="round" stroke-dasharray="8 8"/>
<path d="M51.3906 192.711C52.9864 196.008 54.2984 202.124 46.7804 200.218" stroke="black" stroke-opacity="0.3" stroke-width="2.5" stroke-linecap="round" stroke-dasharray="8 8"/>
<path d="M61.9045 204.703L65.2398 221.179C62.2432 214.265 55.8783 201.166 54.3912 204.073C52.9041 206.98 52.1638 209.285 51.9795 210.074" stroke="black" stroke-opacity="0.3" stroke-width="2.5" stroke-linecap="round" stroke-dasharray="8 8"/>
<path d="M1223.15 404.716C1219.11 376.326 1192.38 376.415 1179.52 380.007C1171.21 370.935 1161.65 370.439 1157.91 371.325C1142.83 377.531 1149.27 391.017 1154.37 396.985C1166.58 398.707 1175.91 406.971 1179.05 410.887C1215.03 431.561 1223.44 415.387 1223.15 404.716Z" stroke="black" stroke-opacity="0.3" stroke-width="2.5" stroke-linecap="round" stroke-dasharray="8 8"/>
<path d="M1193.92 385.796C1202.8 385.319 1218.16 389.686 1208.49 410.97C1207.51 412.764 1203.27 414.448 1194.22 406.829" stroke="black" stroke-opacity="0.3" stroke-width="2.5" stroke-linecap="round" stroke-dasharray="8 8"/>
<path d="M1196.66 387.893C1201.29 389.422 1208.7 394.487 1201.33 402.518C1198.73 403.062 1192.96 403.135 1190.77 399.069" stroke="black" stroke-opacity="0.3" stroke-width="2.5" stroke-linecap="round" stroke-dasharray="8 8"/>
<path d="M1187.7 390.864C1193.19 392.405 1201.1 395.772 1188.85 396.904" stroke="black" stroke-opacity="0.3" stroke-width="2.5" stroke-linecap="round" stroke-dasharray="8 8"/>
<path d="M1162.78 393.396C1158.04 390.163 1151.7 382.13 1164.25 375.865" stroke="black" stroke-opacity="0.3" stroke-width="2.5" stroke-linecap="round" stroke-dasharray="8 8"/>
<path d="M1165.95 388.494C1163 386.579 1158.79 382.032 1165.52 379.161" stroke="black" stroke-opacity="0.3" stroke-width="2.5" stroke-linecap="round" stroke-dasharray="8 8"/>
<path d="M1168.03 376.386C1169.62 379.682 1170.93 385.799 1163.42 383.892" stroke="black" stroke-opacity="0.3" stroke-width="2.5" stroke-linecap="round" stroke-dasharray="8 8"/>
<path d="M1178.54 388.378L1181.88 404.853C1178.88 397.94 1172.51 384.841 1171.03 387.748C1169.54 390.655 1168.8 392.96 1168.62 393.748" stroke="black" stroke-opacity="0.3" stroke-width="2.5" stroke-linecap="round" stroke-dasharray="8 8"/>
<path d="M931.153 57.7153C927.11 29.3258 900.377 29.4143 887.515 33.0072C879.213 23.9351 869.655 23.4389 865.913 24.3248C850.833 30.5309 857.268 44.017 862.371 49.9843C874.583 51.7064 883.914 59.9704 887.052 63.8871C923.032 84.5613 931.444 68.3868 931.153 57.7153Z" stroke="black" stroke-opacity="0.3" stroke-width="2.5" stroke-linecap="round" stroke-dasharray="8 8"/>
<path d="M901.917 38.7954C910.804 38.3183 926.162 42.6853 916.492 63.9701C915.505 65.7642 911.271 67.4476 902.225 59.8291" stroke="black" stroke-opacity="0.3" stroke-width="2.5" stroke-linecap="round" stroke-dasharray="8 8"/>
<path d="M904.658 40.8929C909.288 42.4217 916.704 47.487 909.335 55.5175C906.726 56.0622 900.961 56.1351 898.772 52.0689" stroke="black" stroke-opacity="0.3" stroke-width="2.5" stroke-linecap="round" stroke-dasharray="8 8"/>
<path d="M895.698 43.8634C901.185 45.405 909.099 48.7715 896.854 49.9042" stroke="black" stroke-opacity="0.3" stroke-width="2.5" stroke-linecap="round" stroke-dasharray="8 8"/>
<path d="M870.783 46.3955C866.042 43.1623 859.698 35.1297 872.253 28.8645" stroke="black" stroke-opacity="0.3" stroke-width="2.5" stroke-linecap="round" stroke-dasharray="8 8"/>
<path d="M873.948 41.4942C871 39.5793 866.787 35.0317 873.517 32.1606" stroke="black" stroke-opacity="0.3" stroke-width="2.5" stroke-linecap="round" stroke-dasharray="8 8"/>
<path d="M876.027 29.3853C877.622 32.6819 878.935 38.7985 871.416 36.892" stroke="black" stroke-opacity="0.3" stroke-width="2.5" stroke-linecap="round" stroke-dasharray="8 8"/>
<path d="M886.541 41.3776L889.876 57.8529C886.879 50.9398 880.514 37.8404 879.027 40.7476C877.54 43.6548 876.8 45.9593 876.616 46.7482" stroke="black" stroke-opacity="0.3" stroke-width="2.5" stroke-linecap="round" stroke-dasharray="8 8"/>
<path d="M264.154 549.716C260.111 521.326 233.377 521.415 220.515 525.008C212.213 515.936 202.655 515.439 198.913 516.325C183.833 522.531 190.268 536.017 195.371 541.985C207.583 543.707 216.914 551.971 220.053 555.888C256.032 576.562 264.445 560.387 264.154 549.716Z" stroke="black" stroke-opacity="0.3" stroke-width="2.5" stroke-linecap="round" stroke-dasharray="8 8"/>
<path d="M234.917 530.796C243.804 530.319 259.162 534.686 249.492 555.971C248.505 557.765 244.271 559.448 235.225 551.83" stroke="black" stroke-opacity="0.3" stroke-width="2.5" stroke-linecap="round" stroke-dasharray="8 8"/>
<path d="M237.658 532.893C242.288 534.422 249.705 539.488 242.335 547.518C239.726 548.063 233.962 548.136 231.772 544.069" stroke="black" stroke-opacity="0.3" stroke-width="2.5" stroke-linecap="round" stroke-dasharray="8 8"/>
<path d="M228.698 535.864C234.185 537.406 242.099 540.772 229.855 541.905" stroke="black" stroke-opacity="0.3" stroke-width="2.5" stroke-linecap="round" stroke-dasharray="8 8"/>
<path d="M203.783 538.396C199.042 535.163 192.699 527.13 205.253 520.865" stroke="black" stroke-opacity="0.3" stroke-width="2.5" stroke-linecap="round" stroke-dasharray="8 8"/>
<path d="M206.948 533.495C204 531.58 199.788 527.032 206.518 524.161" stroke="black" stroke-opacity="0.3" stroke-width="2.5" stroke-linecap="round" stroke-dasharray="8 8"/>
<path d="M209.027 521.386C210.623 524.682 211.935 530.799 204.417 528.893" stroke="black" stroke-opacity="0.3" stroke-width="2.5" stroke-linecap="round" stroke-dasharray="8 8"/>
<path d="M219.541 533.378L222.876 549.853C219.88 542.94 213.515 529.841 212.028 532.748C210.54 535.655 209.8 537.96 209.616 538.749" stroke="black" stroke-opacity="0.3" stroke-width="2.5" stroke-linecap="round" stroke-dasharray="8 8"/>
<path d="M494.391 115.414C467.114 106.569 455.444 130.621 453.018 143.753C441.221 147.223 436.574 155.591 435.725 159.341C434.672 175.614 449.615 175.761 457.217 173.8C464.131 163.588 475.655 158.838 480.553 157.74C514.936 134.508 504.105 119.843 494.391 115.414Z" stroke="black" stroke-opacity="0.3" stroke-width="2.5" stroke-linecap="round" stroke-dasharray="8 8"/>
<path d="M464.547 133.361C468.024 125.168 478.697 113.293 493.566 131.333C494.744 133.008 494.395 137.551 483.576 142.328" stroke="black" stroke-opacity="0.3" stroke-width="2.5" stroke-linecap="round" stroke-dasharray="8 8"/>
<path d="M467.636 131.82C471.044 128.334 478.853 123.898 482.828 134.047C482.171 136.63 479.702 141.84 475.088 142.019" stroke="black" stroke-opacity="0.3" stroke-width="2.5" stroke-linecap="round" stroke-dasharray="8 8"/>
<path d="M466.366 141.174C470.162 136.923 476.664 131.294 472.3 142.79" stroke="black" stroke-opacity="0.3" stroke-width="2.5" stroke-linecap="round" stroke-dasharray="8 8"/>
<path d="M457.691 164.667C452.703 167.505 442.7 169.672 442.59 155.642" stroke="black" stroke-opacity="0.3" stroke-width="2.5" stroke-linecap="round" stroke-dasharray="8 8"/>
<path d="M454.679 159.67C451.663 161.476 445.727 163.261 446.106 155.954" stroke="black" stroke-opacity="0.3" stroke-width="2.5" stroke-linecap="round" stroke-dasharray="8 8"/>
<path d="M444.716 152.481C448.379 152.496 454.449 154.006 449.433 159.921" stroke="black" stroke-opacity="0.3" stroke-width="2.5" stroke-linecap="round" stroke-dasharray="8 8"/>
<path d="M460.109 148.307L476.373 152.552C468.847 152.206 454.283 152.166 456.241 154.779C458.199 157.393 459.943 159.071 460.571 159.583" stroke="black" stroke-opacity="0.3" stroke-width="2.5" stroke-linecap="round" stroke-dasharray="8 8"/>
<path d="M350.593 363.959C372.109 382.916 392.376 365.482 399.82 354.396C412.025 355.9 419.614 350.068 421.883 346.964C429.317 332.449 415.663 326.377 407.908 325.155C397.504 331.779 385.042 331.557 380.112 330.618C339.327 338.274 343.439 356.035 350.593 363.959Z" stroke="black" stroke-opacity="0.3" stroke-width="2.5" stroke-linecap="round" stroke-dasharray="8 8"/>
<path d="M385.111 359.351C378.664 365.487 364.151 372.144 357.676 349.68C357.261 347.675 359.386 343.644 371.213 343.56" stroke="black" stroke-opacity="0.3" stroke-width="2.5" stroke-linecap="round" stroke-dasharray="8 8"/>
<path d="M381.664 359.537C377.151 361.382 368.222 362.349 368.608 351.457C370.238 349.348 374.573 345.548 378.879 347.217" stroke="black" stroke-opacity="0.3" stroke-width="2.5" stroke-linecap="round" stroke-dasharray="8 8"/>
<path d="M386.547 351.458C381.373 353.851 373.17 356.432 381.743 347.617" stroke="black" stroke-opacity="0.3" stroke-width="2.5" stroke-linecap="round" stroke-dasharray="8 8"/>
<path d="M403.843 333.348C409.548 332.726 419.589 334.712 414.114 347.631" stroke="black" stroke-opacity="0.3" stroke-width="2.5" stroke-linecap="round" stroke-dasharray="8 8"/>
<path d="M404.621 339.13C408.106 338.671 414.263 339.392 411.012 345.946" stroke="black" stroke-opacity="0.3" stroke-width="2.5" stroke-linecap="round" stroke-dasharray="8 8"/>
<path d="M410.907 349.686C407.552 348.217 402.581 344.419 409.535 340.984" stroke="black" stroke-opacity="0.3" stroke-width="2.5" stroke-linecap="round" stroke-dasharray="8 8"/>
<path d="M395.123 347.399L381.885 337.04C388.654 340.349 402.003 346.174 401.245 342.997C400.487 339.821 399.552 337.588 399.18 336.869" stroke="black" stroke-opacity="0.3" stroke-width="2.5" stroke-linecap="round" stroke-dasharray="8 8"/>
<path d="M-22.0748 328.998C-0.558748 347.955 19.7084 330.521 27.1524 319.435C39.3576 320.939 46.9469 315.106 49.2159 312.002C56.649 297.488 42.9958 291.415 35.24 290.193C24.8369 296.817 12.3748 296.596 7.44408 295.657C-33.34 303.313 -29.2286 321.074 -22.0748 328.998Z" stroke="black" stroke-opacity="0.3" stroke-width="2.5" stroke-linecap="round" stroke-dasharray="8 8"/>
<path d="M12.4435 324.39C5.99656 330.526 -8.51613 337.182 -14.9914 314.719C-15.4068 312.714 -13.2811 308.683 -1.45484 308.599" stroke="black" stroke-opacity="0.3" stroke-width="2.5" stroke-linecap="round" stroke-dasharray="8 8"/>
<path d="M8.99661 324.576C4.48378 326.421 -4.44535 327.388 -4.05919 316.495C-2.42981 314.387 1.90542 310.587 6.21125 312.256" stroke="black" stroke-opacity="0.3" stroke-width="2.5" stroke-linecap="round" stroke-dasharray="8 8"/>
<path d="M13.8792 316.497C8.70588 318.889 0.502525 321.471 9.07565 312.656" stroke="black" stroke-opacity="0.3" stroke-width="2.5" stroke-linecap="round" stroke-dasharray="8 8"/>
<path d="M31.1759 298.387C36.8807 297.765 46.9216 299.751 41.4466 312.67" stroke="black" stroke-opacity="0.3" stroke-width="2.5" stroke-linecap="round" stroke-dasharray="8 8"/>
<path d="M31.9538 304.169C35.4387 303.71 41.5958 304.431 38.3444 310.985" stroke="black" stroke-opacity="0.3" stroke-width="2.5" stroke-linecap="round" stroke-dasharray="8 8"/>
<path d="M38.2394 314.725C34.8847 313.255 29.9138 309.458 36.8679 306.023" stroke="black" stroke-opacity="0.3" stroke-width="2.5" stroke-linecap="round" stroke-dasharray="8 8"/>
<path d="M22.4557 312.438L9.2174 302.079C15.9864 305.388 29.335 311.212 28.577 308.036C27.819 304.86 26.8849 302.627 26.5125 301.907" stroke="black" stroke-opacity="0.3" stroke-width="2.5" stroke-linecap="round" stroke-dasharray="8 8"/>
<path d="M-9.0748 125.998C12.4413 144.955 32.7084 127.521 40.1524 116.435C52.3576 117.939 59.9469 112.106 62.2159 109.002C69.6491 94.4879 55.9958 88.4154 48.2401 87.1934C37.8369 93.8174 25.3748 93.596 20.4441 92.6572C-20.34 100.313 -16.2286 118.074 -9.0748 125.998Z" stroke="black" stroke-opacity="0.3" stroke-width="2.5" stroke-linecap="round" stroke-dasharray="8 8"/>
<path d="M25.4435 121.39C18.9966 127.526 4.4839 134.182 -1.99141 111.719C-2.40681 109.714 -0.281033 105.683 11.5452 105.599" stroke="black" stroke-opacity="0.3" stroke-width="2.5" stroke-linecap="round" stroke-dasharray="8 8"/>
<path d="M21.9966 121.576C17.4838 123.421 8.55468 124.388 8.94084 113.495C10.5702 111.387 14.9054 107.587 19.2113 109.256" stroke="black" stroke-opacity="0.3" stroke-width="2.5" stroke-linecap="round" stroke-dasharray="8 8"/>
<path d="M26.8792 113.497C21.7059 115.889 13.5026 118.471 22.0757 109.656" stroke="black" stroke-opacity="0.3" stroke-width="2.5" stroke-linecap="round" stroke-dasharray="8 8"/>
<path d="M44.1759 95.3866C49.8807 94.7647 59.9216 96.7507 54.4467 109.67" stroke="black" stroke-opacity="0.3" stroke-width="2.5" stroke-linecap="round" stroke-dasharray="8 8"/>
<path d="M44.9538 101.169C48.4388 100.71 54.5958 101.431 51.3444 107.985" stroke="black" stroke-opacity="0.3" stroke-width="2.5" stroke-linecap="round" stroke-dasharray="8 8"/>
<path d="M51.2394 111.725C47.8847 110.255 42.9138 106.458 49.8679 103.023" stroke="black" stroke-opacity="0.3" stroke-width="2.5" stroke-linecap="round" stroke-dasharray="8 8"/>
<path d="M35.4557 109.438L22.2174 99.0791C28.9865 102.388 42.3351 108.212 41.5771 105.036C40.8191 101.86 39.8849 99.6269 39.5125 98.9074" stroke="black" stroke-opacity="0.3" stroke-width="2.5" stroke-linecap="round" stroke-dasharray="8 8"/>
<path d="M-23.0748 496.998C-1.55875 515.955 18.7084 498.521 26.1524 487.434C38.3576 488.938 45.9469 483.106 48.2159 480.002C55.649 465.487 41.9958 459.415 34.24 458.193C23.8369 464.817 11.3748 464.595 6.44408 463.657C-34.34 471.312 -30.2286 489.074 -23.0748 496.998Z" stroke="black" stroke-opacity="0.3" stroke-width="2.5" stroke-linecap="round" stroke-dasharray="8 8"/>
<path d="M11.4435 492.389C4.99656 498.525 -9.51613 505.182 -15.9914 482.718C-16.4068 480.713 -14.2811 476.682 -2.45484 476.598" stroke="black" stroke-opacity="0.3" stroke-width="2.5" stroke-linecap="round" stroke-dasharray="8 8"/>
<path d="M7.99661 492.575C3.48378 494.42 -5.44535 495.387 -5.05919 484.495C-3.42981 482.386 0.905418 478.586 5.21125 480.255" stroke="black" stroke-opacity="0.3" stroke-width="2.5" stroke-linecap="round" stroke-dasharray="8 8"/>
<path d="M12.8792 484.496C7.70588 486.889 -0.497475 489.47 8.07565 480.655" stroke="black" stroke-opacity="0.3" stroke-width="2.5" stroke-linecap="round" stroke-dasharray="8 8"/>
<path d="M30.1759 466.386C35.8807 465.764 45.9216 467.75 40.4466 480.669" stroke="black" stroke-opacity="0.3" stroke-width="2.5" stroke-linecap="round" stroke-dasharray="8 8"/>
<path d="M30.9538 472.168C34.4387 471.709 40.5958 472.43 37.3444 478.984" stroke="black" stroke-opacity="0.3" stroke-width="2.5" stroke-linecap="round" stroke-dasharray="8 8"/>
<path d="M37.2394 482.724C33.8847 481.255 28.9138 477.457 35.8679 474.022" stroke="black" stroke-opacity="0.3" stroke-width="2.5" stroke-linecap="round" stroke-dasharray="8 8"/>
<path d="M21.4557 480.437L8.2174 470.078C14.9864 473.387 28.335 479.212 27.577 476.035C26.819 472.859 25.8849 470.626 25.5125 469.907" stroke="black" stroke-opacity="0.3" stroke-width="2.5" stroke-linecap="round" stroke-dasharray="8 8"/>
<path d="M881.925 549.999C903.441 568.955 923.708 551.522 931.152 540.435C943.357 541.939 950.947 536.107 953.216 533.003C960.649 518.488 946.996 512.416 939.24 511.194C928.837 517.818 916.375 517.596 911.444 516.657C870.66 524.313 874.771 542.075 881.925 549.999Z" stroke="black" stroke-opacity="0.3" stroke-width="2.5" stroke-linecap="round" stroke-dasharray="8 8"/>
<path d="M916.443 545.39C909.996 551.526 895.484 558.183 889.008 535.719C888.593 533.714 890.719 529.683 902.545 529.599" stroke="black" stroke-opacity="0.3" stroke-width="2.5" stroke-linecap="round" stroke-dasharray="8 8"/>
<path d="M912.996 545.576C908.484 547.421 899.554 548.388 899.941 537.496C901.57 535.387 905.905 531.587 910.211 533.256" stroke="black" stroke-opacity="0.3" stroke-width="2.5" stroke-linecap="round" stroke-dasharray="8 8"/>
<path d="M917.879 537.497C912.706 539.89 904.502 542.471 913.076 533.656" stroke="black" stroke-opacity="0.3" stroke-width="2.5" stroke-linecap="round" stroke-dasharray="8 8"/>
<path d="M935.176 519.387C940.88 518.765 950.921 520.751 945.446 533.67" stroke="black" stroke-opacity="0.3" stroke-width="2.5" stroke-linecap="round" stroke-dasharray="8 8"/>
<path d="M935.954 525.169C939.439 524.71 945.596 525.431 942.344 531.985" stroke="black" stroke-opacity="0.3" stroke-width="2.5" stroke-linecap="round" stroke-dasharray="8 8"/>
<path d="M942.239 535.725C938.885 534.256 933.914 530.458 940.868 527.023" stroke="black" stroke-opacity="0.3" stroke-width="2.5" stroke-linecap="round" stroke-dasharray="8 8"/>
<path d="M926.456 533.438L913.217 523.079C919.986 526.388 933.335 532.213 932.577 529.036C931.819 525.86 930.885 523.627 930.512 522.908" stroke="black" stroke-opacity="0.3" stroke-width="2.5" stroke-linecap="round" stroke-dasharray="8 8"/>
<path d="M1044.93 351.998C1066.44 370.955 1086.71 353.521 1094.15 342.435C1106.36 343.939 1113.95 338.106 1116.22 335.002C1123.65 320.488 1110 314.415 1102.24 313.193C1091.84 319.817 1079.37 319.596 1074.44 318.657C1033.66 326.313 1037.77 344.074 1044.93 351.998Z" stroke="black" stroke-opacity="0.3" stroke-width="2.5" stroke-linecap="round" stroke-dasharray="8 8"/>
<path d="M1079.44 347.39C1073 353.526 1058.48 360.182 1052.01 337.719C1051.59 335.714 1053.72 331.683 1065.55 331.599" stroke="black" stroke-opacity="0.3" stroke-width="2.5" stroke-linecap="round" stroke-dasharray="8 8"/>
<path d="M1076 347.576C1071.48 349.421 1062.55 350.388 1062.94 339.495C1064.57 337.387 1068.91 333.587 1073.21 335.256" stroke="black" stroke-opacity="0.3" stroke-width="2.5" stroke-linecap="round" stroke-dasharray="8 8"/>
<path d="M1080.88 339.497C1075.71 341.889 1067.5 344.471 1076.08 335.656" stroke="black" stroke-opacity="0.3" stroke-width="2.5" stroke-linecap="round" stroke-dasharray="8 8"/>
<path d="M1098.18 321.387C1103.88 320.765 1113.92 322.751 1108.45 335.67" stroke="black" stroke-opacity="0.3" stroke-width="2.5" stroke-linecap="round" stroke-dasharray="8 8"/>
<path d="M1098.95 327.169C1102.44 326.71 1108.6 327.431 1105.34 333.985" stroke="black" stroke-opacity="0.3" stroke-width="2.5" stroke-linecap="round" stroke-dasharray="8 8"/>
<path d="M1105.24 337.725C1101.88 336.255 1096.91 332.458 1103.87 329.023" stroke="black" stroke-opacity="0.3" stroke-width="2.5" stroke-linecap="round" stroke-dasharray="8 8"/>
<path d="M1089.46 335.438L1076.22 325.079C1082.99 328.388 1096.34 334.212 1095.58 331.036C1094.82 327.86 1093.88 325.627 1093.51 324.907" stroke="black" stroke-opacity="0.3" stroke-width="2.5" stroke-linecap="round" stroke-dasharray="8 8"/>
<path d="M194.925 70.998C216.441 89.955 236.708 72.5211 244.152 61.4345C256.358 62.9384 263.947 57.1062 266.216 54.0022C273.649 39.4876 259.996 33.4151 252.24 32.1932C241.837 38.8172 229.375 38.5957 224.444 37.657C183.66 45.3123 187.772 63.0741 194.925 70.998Z" stroke="black" stroke-opacity="0.3" stroke-width="2.5" stroke-linecap="round" stroke-dasharray="8 8"/>
<path d="M229.444 66.3893C222.997 72.5256 208.484 79.1821 202.009 56.7183C201.593 54.7135 203.719 50.6828 215.545 50.5985" stroke="black" stroke-opacity="0.3" stroke-width="2.5" stroke-linecap="round" stroke-dasharray="8 8"/>
<path d="M225.997 66.5757C221.484 68.4209 212.555 69.388 212.941 58.4952C214.57 56.3864 218.906 52.5863 223.211 54.2555" stroke="black" stroke-opacity="0.3" stroke-width="2.5" stroke-linecap="round" stroke-dasharray="8 8"/>
<path d="M230.879 58.4966C225.706 60.8892 217.503 63.4706 226.076 54.6553" stroke="black" stroke-opacity="0.3" stroke-width="2.5" stroke-linecap="round" stroke-dasharray="8 8"/>
<path d="M248.176 40.3863C253.881 39.7644 263.922 41.7504 258.447 54.6694" stroke="black" stroke-opacity="0.3" stroke-width="2.5" stroke-linecap="round" stroke-dasharray="8 8"/>
<path d="M248.954 46.1687C252.439 45.7097 258.596 46.4303 255.345 52.9849" stroke="black" stroke-opacity="0.3" stroke-width="2.5" stroke-linecap="round" stroke-dasharray="8 8"/>
<path d="M255.239 56.7249C251.885 55.2552 246.914 51.4574 253.868 48.0229" stroke="black" stroke-opacity="0.3" stroke-width="2.5" stroke-linecap="round" stroke-dasharray="8 8"/>
<path d="M239.456 54.4376L226.217 44.0788C232.987 47.388 246.335 53.2121 245.577 50.0359C244.819 46.8596 243.885 44.6266 243.513 43.9071" stroke="black" stroke-opacity="0.3" stroke-width="2.5" stroke-linecap="round" stroke-dasharray="8 8"/>
<path d="M1159.93 278.998C1181.44 297.955 1201.71 280.521 1209.15 269.435C1221.36 270.939 1228.95 265.106 1231.22 262.002C1238.65 247.488 1225 241.415 1217.24 240.193C1206.84 246.817 1194.37 246.596 1189.44 245.657C1148.66 253.313 1152.77 271.074 1159.93 278.998Z" stroke="black" stroke-opacity="0.3" stroke-width="2.5" stroke-linecap="round" stroke-dasharray="8 8"/>
<path d="M1194.44 274.39C1188 280.526 1173.48 287.182 1167.01 264.719C1166.59 262.714 1168.72 258.683 1180.55 258.599" stroke="black" stroke-opacity="0.3" stroke-width="2.5" stroke-linecap="round" stroke-dasharray="8 8"/>
<path d="M1191 274.576C1186.48 276.421 1177.55 277.388 1177.94 266.495C1179.57 264.387 1183.91 260.587 1188.21 262.256" stroke="black" stroke-opacity="0.3" stroke-width="2.5" stroke-linecap="round" stroke-dasharray="8 8"/>
<path d="M1195.88 266.497C1190.71 268.889 1182.5 271.471 1191.08 262.656" stroke="black" stroke-opacity="0.3" stroke-width="2.5" stroke-linecap="round" stroke-dasharray="8 8"/>
<path d="M1213.18 248.387C1218.88 247.765 1228.92 249.751 1223.45 262.67" stroke="black" stroke-opacity="0.3" stroke-width="2.5" stroke-linecap="round" stroke-dasharray="8 8"/>
<path d="M1213.95 254.169C1217.44 253.71 1223.6 254.431 1220.34 260.985" stroke="black" stroke-opacity="0.3" stroke-width="2.5" stroke-linecap="round" stroke-dasharray="8 8"/>
<path d="M1220.24 264.725C1216.88 263.255 1211.91 259.458 1218.87 256.023" stroke="black" stroke-opacity="0.3" stroke-width="2.5" stroke-linecap="round" stroke-dasharray="8 8"/>
<path d="M1204.46 262.438L1191.22 252.079C1197.99 255.388 1211.34 261.212 1210.58 258.036C1209.82 254.86 1208.88 252.627 1208.51 251.907" stroke="black" stroke-opacity="0.3" stroke-width="2.5" stroke-linecap="round" stroke-dasharray="8 8"/>
<path d="M1222.93 158.996C1244.44 177.953 1264.71 160.519 1272.15 149.433C1284.36 150.937 1291.95 145.104 1294.22 142C1301.65 127.486 1288 121.413 1280.24 120.191C1269.84 126.815 1257.37 126.594 1252.44 125.655C1211.66 133.311 1215.77 151.072 1222.93 158.996Z" stroke="black" stroke-opacity="0.3" stroke-width="2.5" stroke-linecap="round" stroke-dasharray="8 8"/>
<path d="M1257.44 154.388C1251 160.524 1236.48 167.18 1230.01 144.717C1229.59 142.712 1231.72 138.681 1243.55 138.597" stroke="black" stroke-opacity="0.3" stroke-width="2.5" stroke-linecap="round" stroke-dasharray="8 8"/>
<path d="M1254 154.574C1249.48 156.419 1240.55 157.386 1240.94 146.493C1242.57 144.385 1246.91 140.585 1251.21 142.254" stroke="black" stroke-opacity="0.3" stroke-width="2.5" stroke-linecap="round" stroke-dasharray="8 8"/>
<path d="M1258.88 146.495C1253.71 148.887 1245.5 151.469 1254.08 142.654" stroke="black" stroke-opacity="0.3" stroke-width="2.5" stroke-linecap="round" stroke-dasharray="8 8"/>
<path d="M1276.18 128.385C1281.88 127.763 1291.92 129.749 1286.45 142.668" stroke="black" stroke-opacity="0.3" stroke-width="2.5" stroke-linecap="round" stroke-dasharray="8 8"/>
<path d="M1276.95 134.167C1280.44 133.708 1286.6 134.429 1283.34 140.983" stroke="black" stroke-opacity="0.3" stroke-width="2.5" stroke-linecap="round" stroke-dasharray="8 8"/>
<path d="M1283.24 144.723C1279.88 143.254 1274.91 139.456 1281.87 136.021" stroke="black" stroke-opacity="0.3" stroke-width="2.5" stroke-linecap="round" stroke-dasharray="8 8"/>
<path d="M1267.46 142.436L1254.22 132.077C1260.99 135.386 1274.34 141.21 1273.58 138.034C1272.82 134.858 1271.88 132.625 1271.51 131.905" stroke="black" stroke-opacity="0.3" stroke-width="2.5" stroke-linecap="round" stroke-dasharray="8 8"/>
<path d="M114.489 138.409C115.357 167.071 141.936 169.949 155.116 167.805C162.361 177.743 171.805 179.296 175.622 178.831C191.297 174.336 186.398 160.219 181.989 153.723C170.043 150.656 161.687 141.408 159.002 137.167C125.538 112.629 115.383 127.771 114.489 138.409Z" stroke="black" stroke-opacity="0.3" stroke-width="2.5" stroke-linecap="round" stroke-dasharray="8 8"/>
<path d="M141.446 160.455C132.56 159.943 117.782 153.9 129.754 133.819C130.933 132.145 135.328 130.942 143.473 139.517" stroke="black" stroke-opacity="0.3" stroke-width="2.5" stroke-linecap="round" stroke-dasharray="8 8"/>
<path d="M138.954 158.067C134.523 156.034 127.714 150.177 135.929 143.013C138.582 142.762 144.319 143.329 146.044 147.613" stroke="black" stroke-opacity="0.3" stroke-width="2.5" stroke-linecap="round" stroke-dasharray="8 8"/>
<path d="M148.189 156.109C142.906 153.968 135.415 149.744 147.709 149.977" stroke="black" stroke-opacity="0.3" stroke-width="2.5" stroke-linecap="round" stroke-dasharray="8 8"/>
<path d="M173.23 156.356C177.584 160.095 182.997 168.782 169.825 173.616" stroke="black" stroke-opacity="0.3" stroke-width="2.5" stroke-linecap="round" stroke-dasharray="8 8"/>
<path d="M169.541 160.876C172.258 163.106 175.941 168.093 168.934 170.2" stroke="black" stroke-opacity="0.3" stroke-width="2.5" stroke-linecap="round" stroke-dasharray="8 8"/>
<path d="M166.132 172.679C164.912 169.226 164.287 163.002 171.547 165.731" stroke="black" stroke-opacity="0.3" stroke-width="2.5" stroke-linecap="round" stroke-dasharray="8 8"/>
<path d="M157.014 159.595L155.527 142.851C157.738 150.054 162.61 163.779 164.411 161.054C166.211 158.33 167.202 156.122 167.473 155.358" stroke="black" stroke-opacity="0.3" stroke-width="2.5" stroke-linecap="round" stroke-dasharray="8 8"/>
<path d="M309.67 90.813C326.296 114.177 306.856 132.529 295.058 138.784C295.289 151.08 288.702 158.024 285.379 159.959C270.173 165.848 265.548 151.64 265.136 143.799C272.802 134.138 273.873 121.72 273.45 116.719C285.29 76.9472 302.53 82.8767 309.67 90.813Z" stroke="black" stroke-opacity="0.3" stroke-width="2.5" stroke-linecap="round" stroke-dasharray="8 8"/>
<path d="M301.51 124.668C308.281 118.892 316.405 105.147 294.733 96.3789C292.782 95.758 288.553 97.4547 287.244 109.209" stroke="black" stroke-opacity="0.3" stroke-width="2.5" stroke-linecap="round" stroke-dasharray="8 8"/>
<path d="M302.052 121.259C304.355 116.962 306.242 108.181 295.368 107.436C293.102 108.838 288.873 112.757 290.087 117.212" stroke="black" stroke-opacity="0.3" stroke-width="2.5" stroke-linecap="round" stroke-dasharray="8 8"/>
<path d="M293.511 125.278C296.426 120.381 299.844 112.489 290.188 120.102" stroke="black" stroke-opacity="0.3" stroke-width="2.5" stroke-linecap="round" stroke-dasharray="8 8"/>
<path d="M273.706 140.606C272.496 146.215 273.431 156.408 286.848 152.301" stroke="black" stroke-opacity="0.3" stroke-width="2.5" stroke-linecap="round" stroke-dasharray="8 8"/>
<path d="M279.377 141.978C278.559 145.397 278.638 151.596 285.494 149.041" stroke="black" stroke-opacity="0.3" stroke-width="2.5" stroke-linecap="round" stroke-dasharray="8 8"/>
<path d="M289.225 149.324C288.111 145.835 284.848 140.497 280.712 147.058" stroke="black" stroke-opacity="0.3" stroke-width="2.5" stroke-linecap="round" stroke-dasharray="8 8"/>
<path d="M288.585 133.388L279.654 119.148C282.244 126.223 286.653 140.103 283.573 139.02C280.492 137.937 278.368 136.777 277.691 136.332" stroke="black" stroke-opacity="0.3" stroke-width="2.5" stroke-linecap="round" stroke-dasharray="8 8"/>
<path d="M639.7 59.8938C665.698 71.9943 657.862 97.554 650.694 108.821C656.97 119.397 654.673 128.689 652.741 132.013C642.429 144.646 631.388 134.577 627.156 127.963C629.049 115.777 623.845 104.451 621.007 100.311C611.652 59.8829 629.571 56.5212 639.7 59.8938Z" stroke="black" stroke-opacity="0.3" stroke-width="2.5" stroke-linecap="round" stroke-dasharray="8 8"/>
<path d="M649.33 93.3604C652.364 84.9929 652.637 69.0288 629.463 72.1122C627.46 72.5363 624.621 76.1009 629.289 86.9669" stroke="black" stroke-opacity="0.3" stroke-width="2.5" stroke-linecap="round" stroke-dasharray="8 8"/>
<path d="M648.118 90.1284C647.997 85.2544 645.299 76.6876 635.477 81.4125C634.199 83.7512 632.458 89.247 635.715 92.5211" stroke="black" stroke-opacity="0.3" stroke-width="2.5" stroke-linecap="round" stroke-dasharray="8 8"/>
<path d="M642.677 97.8428C642.792 92.1441 641.865 83.5944 637.231 94.9844" stroke="black" stroke-opacity="0.3" stroke-width="2.5" stroke-linecap="round" stroke-dasharray="8 8"/>
<path d="M633.03 120.953C634.75 126.428 640.598 134.828 650.234 124.629" stroke="black" stroke-opacity="0.3" stroke-width="2.5" stroke-linecap="round" stroke-dasharray="8 8"/>
<path d="M638.638 119.345C639.616 122.721 642.747 128.072 647.446 122.463" stroke="black" stroke-opacity="0.3" stroke-width="2.5" stroke-linecap="round" stroke-dasharray="8 8"/>
<path d="M650.83 120.866C648.137 118.383 642.664 115.354 642.309 123.102" stroke="black" stroke-opacity="0.3" stroke-width="2.5" stroke-linecap="round" stroke-dasharray="8 8"/>
<path d="M642.401 107.327L627.6 99.3585C633.348 104.231 644.039 114.12 640.825 114.7C637.612 115.281 635.192 115.321 634.383 115.269" stroke="black" stroke-opacity="0.3" stroke-width="2.5" stroke-linecap="round" stroke-dasharray="8 8"/>
<path d="M464.159 256.179C480.683 232.743 504.446 244.992 514.261 254.047C525.783 249.749 534.52 253.659 537.448 256.151C548.049 268.542 536.18 277.619 528.92 280.609C517.263 276.583 505.193 279.693 500.615 281.752C459.169 283.779 459.042 265.548 464.159 256.179Z" stroke="black" stroke-opacity="0.3" stroke-width="2.5" stroke-linecap="round" stroke-dasharray="8 8"/>
<path d="M498.804 252.644C491.108 248.173 475.446 245.07 474.366 268.423C474.427 270.47 477.431 273.896 488.954 271.231" stroke="black" stroke-opacity="0.3" stroke-width="2.5" stroke-linecap="round" stroke-dasharray="8 8"/>
<path d="M495.408 253.264C490.59 252.517 481.681 253.65 484.586 264.156C486.661 265.828 491.76 268.517 495.561 265.894" stroke="black" stroke-opacity="0.3" stroke-width="2.5" stroke-linecap="round" stroke-dasharray="8 8"/>
<path d="M502.034 259.987C496.446 258.862 487.868 258.256 498.254 264.839" stroke="black" stroke-opacity="0.3" stroke-width="2.5" stroke-linecap="round" stroke-dasharray="8 8"/>
<path d="M523.064 273.584C528.757 272.864 538.062 268.6 529.736 257.306" stroke="black" stroke-opacity="0.3" stroke-width="2.5" stroke-linecap="round" stroke-dasharray="8 8"/>
<path d="M522.478 267.78C525.974 267.417 531.795 265.285 527.11 259.665" stroke="black" stroke-opacity="0.3" stroke-width="2.5" stroke-linecap="round" stroke-dasharray="8 8"/>
<path d="M526.139 256.052C523.218 258.261 519.265 263.109 526.826 264.835" stroke="black" stroke-opacity="0.3" stroke-width="2.5" stroke-linecap="round" stroke-dasharray="8 8"/>
<path d="M511.318 261.943L500.848 275.094C506.664 270.303 518.294 261.537 518.295 264.803C518.295 268.068 517.905 270.457 517.71 271.243" stroke="black" stroke-opacity="0.3" stroke-width="2.5" stroke-linecap="round" stroke-dasharray="8 8"/>
<path d="M170.673 452.8C187.197 429.363 210.96 441.613 220.776 450.667C232.298 446.369 241.034 450.279 243.962 452.771C254.563 465.162 242.694 474.24 235.434 477.23C223.777 473.203 211.707 476.314 207.129 478.372C165.683 480.4 165.556 462.169 170.673 452.8Z" stroke="black" stroke-opacity="0.3" stroke-width="2.5" stroke-linecap="round" stroke-dasharray="8 8"/>
<path d="M205.318 449.264C197.622 444.793 181.96 441.69 180.88 465.044C180.942 467.09 183.945 470.517 195.468 467.852" stroke="black" stroke-opacity="0.3" stroke-width="2.5" stroke-linecap="round" stroke-dasharray="8 8"/>
<path d="M201.922 449.884C197.104 449.137 188.195 450.271 191.1 460.776C193.175 462.449 198.274 465.138 202.075 462.514" stroke="black" stroke-opacity="0.3" stroke-width="2.5" stroke-linecap="round" stroke-dasharray="8 8"/>
<path d="M208.548 456.608C202.96 455.482 194.382 454.877 204.768 461.46" stroke="black" stroke-opacity="0.3" stroke-width="2.5" stroke-linecap="round" stroke-dasharray="8 8"/>
<path d="M229.578 470.205C235.271 469.484 244.576 465.22 236.25 453.927" stroke="black" stroke-opacity="0.3" stroke-width="2.5" stroke-linecap="round" stroke-dasharray="8 8"/>
<path d="M228.992 464.4C232.488 464.037 238.309 461.906 233.624 456.286" stroke="black" stroke-opacity="0.3" stroke-width="2.5" stroke-linecap="round" stroke-dasharray="8 8"/>
<path d="M232.653 452.673C229.732 454.881 225.779 459.73 233.341 461.455" stroke="black" stroke-opacity="0.3" stroke-width="2.5" stroke-linecap="round" stroke-dasharray="8 8"/>
<path d="M217.833 458.563L207.363 471.714C213.178 466.923 224.808 458.157 224.809 461.423C224.809 464.688 224.42 467.077 224.224 467.864" stroke="black" stroke-opacity="0.3" stroke-width="2.5" stroke-linecap="round" stroke-dasharray="8 8"/>
<path d="M1059.67 527.8C1076.2 504.363 1099.96 516.613 1109.78 525.667C1121.3 521.369 1130.03 525.279 1132.96 527.771C1143.56 540.162 1131.69 549.24 1124.43 552.23C1112.78 548.203 1100.71 551.314 1096.13 553.372C1054.68 555.4 1054.56 537.169 1059.67 527.8Z" stroke="black" stroke-opacity="0.3" stroke-width="2.5" stroke-linecap="round" stroke-dasharray="8 8"/>
<path d="M1094.32 524.264C1086.62 519.793 1070.96 516.69 1069.88 540.044C1069.94 542.09 1072.95 545.517 1084.47 542.852" stroke="black" stroke-opacity="0.3" stroke-width="2.5" stroke-linecap="round" stroke-dasharray="8 8"/>
<path d="M1090.92 524.884C1086.1 524.137 1077.19 525.271 1080.1 535.776C1082.17 537.449 1087.27 540.138 1091.07 537.514" stroke="black" stroke-opacity="0.3" stroke-width="2.5" stroke-linecap="round" stroke-dasharray="8 8"/>
<path d="M1097.55 531.608C1091.96 530.482 1083.38 529.877 1093.77 536.46" stroke="black" stroke-opacity="0.3" stroke-width="2.5" stroke-linecap="round" stroke-dasharray="8 8"/>
<path d="M1118.58 545.205C1124.27 544.484 1133.58 540.22 1125.25 528.927" stroke="black" stroke-opacity="0.3" stroke-width="2.5" stroke-linecap="round" stroke-dasharray="8 8"/>
<path d="M1117.99 539.4C1121.49 539.037 1127.31 536.906 1122.62 531.286" stroke="black" stroke-opacity="0.3" stroke-width="2.5" stroke-linecap="round" stroke-dasharray="8 8"/>
<path d="M1121.65 527.673C1118.73 529.881 1114.78 534.73 1122.34 536.455" stroke="black" stroke-opacity="0.3" stroke-width="2.5" stroke-linecap="round" stroke-dasharray="8 8"/>
<path d="M1106.83 533.563L1096.36 546.714C1102.18 541.923 1113.81 533.157 1113.81 536.423C1113.81 539.688 1113.42 542.077 1113.22 542.864" stroke="black" stroke-opacity="0.3" stroke-width="2.5" stroke-linecap="round" stroke-dasharray="8 8"/>
<path d="M357.44 475.557C353.169 503.913 326.437 503.61 313.605 499.914C305.23 508.919 295.668 509.338 291.934 508.422C276.904 502.095 283.447 488.661 288.598 482.735C300.823 481.111 310.22 472.922 313.39 469.031C349.535 448.647 357.817 464.888 357.44 475.557Z" stroke="black" stroke-opacity="0.3" stroke-width="2.5" stroke-linecap="round" stroke-dasharray="8 8"/>
<path d="M328.052 494.241C336.936 494.79 352.328 490.546 342.829 469.185C341.857 467.383 337.636 465.665 328.53 473.211" stroke="black" stroke-opacity="0.3" stroke-width="2.5" stroke-linecap="round" stroke-dasharray="8 8"/>
<path d="M330.811 492.166C335.452 490.674 342.909 485.669 335.604 477.579C333 477.014 327.237 476.895 325.015 480.943" stroke="black" stroke-opacity="0.3" stroke-width="2.5" stroke-linecap="round" stroke-dasharray="8 8"/>
<path d="M321.874 489.124C327.374 487.626 335.314 484.323 323.079 483.092" stroke="black" stroke-opacity="0.3" stroke-width="2.5" stroke-linecap="round" stroke-dasharray="8 8"/>
<path d="M296.981 486.391C292.214 489.586 285.806 497.568 298.31 503.933" stroke="black" stroke-opacity="0.3" stroke-width="2.5" stroke-linecap="round" stroke-dasharray="8 8"/>
<path d="M300.106 491.318C297.143 493.209 292.894 497.723 299.601 500.648" stroke="black" stroke-opacity="0.3" stroke-width="2.5" stroke-linecap="round" stroke-dasharray="8 8"/>
<path d="M302.088 503.443C303.71 500.159 305.071 494.054 297.538 495.9" stroke="black" stroke-opacity="0.3" stroke-width="2.5" stroke-linecap="round" stroke-dasharray="8 8"/>
<path d="M312.698 491.536L316.165 475.088C313.113 481.976 306.643 495.024 305.179 492.105C303.716 489.186 302.994 486.876 302.816 486.085" stroke="black" stroke-opacity="0.3" stroke-width="2.5" stroke-linecap="round" stroke-dasharray="8 8"/>
<path d="M1297.21 313.247C1292.94 341.603 1266.21 341.3 1253.38 337.604C1245 346.609 1235.44 347.028 1231.7 346.112C1216.68 339.785 1223.22 326.351 1228.37 320.425C1240.59 318.801 1249.99 310.612 1253.16 306.721C1289.31 286.337 1297.59 302.578 1297.21 313.247Z" stroke="black" stroke-opacity="0.3" stroke-width="2.5" stroke-linecap="round" stroke-dasharray="8 8"/>
<path d="M1267.82 331.931C1276.71 332.48 1292.1 328.236 1282.6 306.875C1281.63 305.073 1277.41 303.355 1268.3 310.901" stroke="black" stroke-opacity="0.3" stroke-width="2.5" stroke-linecap="round" stroke-dasharray="8 8"/>
<path d="M1270.58 329.856C1275.22 328.364 1282.68 323.359 1275.38 315.269C1272.77 314.704 1267.01 314.585 1264.79 318.633" stroke="black" stroke-opacity="0.3" stroke-width="2.5" stroke-linecap="round" stroke-dasharray="8 8"/>
<path d="M1261.65 326.814C1267.15 325.316 1275.09 322.013 1262.85 320.782" stroke="black" stroke-opacity="0.3" stroke-width="2.5" stroke-linecap="round" stroke-dasharray="8 8"/>
<path d="M1236.75 324.081C1231.99 327.276 1225.58 335.258 1238.08 341.623" stroke="black" stroke-opacity="0.3" stroke-width="2.5" stroke-linecap="round" stroke-dasharray="8 8"/>
<path d="M1239.88 329.008C1236.91 330.899 1232.67 335.413 1239.37 338.338" stroke="black" stroke-opacity="0.3" stroke-width="2.5" stroke-linecap="round" stroke-dasharray="8 8"/>
<path d="M1241.86 341.133C1243.48 337.849 1244.84 331.744 1237.31 333.59" stroke="black" stroke-opacity="0.3" stroke-width="2.5" stroke-linecap="round" stroke-dasharray="8 8"/>
<path d="M1252.47 329.225L1255.94 312.778C1252.88 319.666 1246.41 332.714 1244.95 329.795C1243.49 326.876 1242.77 324.566 1242.59 323.775" stroke="black" stroke-opacity="0.3" stroke-width="2.5" stroke-linecap="round" stroke-dasharray="8 8"/>
<path d="M1310.21 542.246C1305.94 570.602 1279.21 570.299 1266.38 566.602C1258 575.608 1248.44 576.027 1244.7 575.111C1229.68 568.784 1236.22 555.35 1241.37 549.424C1253.59 547.8 1262.99 539.611 1266.16 535.72C1302.31 515.335 1310.59 531.577 1310.21 542.246Z" stroke="black" stroke-opacity="0.3" stroke-width="2.5" stroke-linecap="round" stroke-dasharray="8 8"/>
<path d="M1280.82 560.93C1289.71 561.479 1305.1 557.235 1295.6 535.873C1294.63 534.071 1290.41 532.354 1281.3 539.9" stroke="black" stroke-opacity="0.3" stroke-width="2.5" stroke-linecap="round" stroke-dasharray="8 8"/>
<path d="M1283.58 558.855C1288.22 557.363 1295.68 552.358 1288.38 544.268C1285.77 543.702 1280.01 543.583 1277.79 547.632" stroke="black" stroke-opacity="0.3" stroke-width="2.5" stroke-linecap="round" stroke-dasharray="8 8"/>
<path d="M1274.65 555.812C1280.15 554.315 1288.09 551.012 1275.85 549.781" stroke="black" stroke-opacity="0.3" stroke-width="2.5" stroke-linecap="round" stroke-dasharray="8 8"/>
<path d="M1249.75 553.08C1244.99 556.275 1238.58 564.256 1251.08 570.622" stroke="black" stroke-opacity="0.3" stroke-width="2.5" stroke-linecap="round" stroke-dasharray="8 8"/>
<path d="M1252.88 558.007C1249.91 559.898 1245.67 564.411 1252.37 567.337" stroke="black" stroke-opacity="0.3" stroke-width="2.5" stroke-linecap="round" stroke-dasharray="8 8"/>
<path d="M1254.86 570.132C1256.48 566.848 1257.84 560.742 1250.31 562.588" stroke="black" stroke-opacity="0.3" stroke-width="2.5" stroke-linecap="round" stroke-dasharray="8 8"/>
<path d="M1265.47 558.224L1268.94 541.776C1265.88 548.665 1259.41 561.713 1257.95 558.794C1256.49 555.875 1255.77 553.564 1255.59 552.774" stroke="black" stroke-opacity="0.3" stroke-width="2.5" stroke-linecap="round" stroke-dasharray="8 8"/>
<path d="M1297.21 32.2458C1292.94 60.6019 1266.21 60.2986 1253.38 56.6024C1245 65.6075 1235.44 66.0269 1231.7 65.1109C1216.68 58.7838 1223.22 45.3499 1228.37 39.4238C1240.59 37.7999 1249.99 29.6112 1253.16 25.7198C1289.31 5.33546 1297.59 21.577 1297.21 32.2458Z" stroke="black" stroke-opacity="0.3" stroke-width="2.5" stroke-linecap="round" stroke-dasharray="8 8"/>
<path d="M1267.82 50.9301C1276.71 51.4786 1292.1 47.2352 1282.6 25.8733C1281.63 24.0714 1277.41 22.354 1268.3 29.8995" stroke="black" stroke-opacity="0.3" stroke-width="2.5" stroke-linecap="round" stroke-dasharray="8 8"/>
<path d="M1270.58 48.8546C1275.22 47.3631 1282.68 42.3576 1275.38 34.2681C1272.77 33.7025 1267.01 33.5833 1264.79 37.6317" stroke="black" stroke-opacity="0.3" stroke-width="2.5" stroke-linecap="round" stroke-dasharray="8 8"/>
<path d="M1261.65 45.8124C1267.15 44.3149 1275.09 41.0121 1262.85 39.7811" stroke="black" stroke-opacity="0.3" stroke-width="2.5" stroke-linecap="round" stroke-dasharray="8 8"/>
<path d="M1236.75 43.08C1231.99 46.275 1225.58 54.2564 1238.08 60.6222" stroke="black" stroke-opacity="0.3" stroke-width="2.5" stroke-linecap="round" stroke-dasharray="8 8"/>
<path d="M1239.88 48.0067C1236.91 49.8979 1232.67 54.4115 1239.37 57.3365" stroke="black" stroke-opacity="0.3" stroke-width="2.5" stroke-linecap="round" stroke-dasharray="8 8"/>
<path d="M1241.86 60.1318C1243.48 56.8482 1244.84 50.7424 1237.31 52.5883" stroke="black" stroke-opacity="0.3" stroke-width="2.5" stroke-linecap="round" stroke-dasharray="8 8"/>
<path d="M1252.47 48.2243L1255.94 31.7764C1252.88 38.6652 1246.41 51.713 1244.95 48.7939C1243.49 45.8749 1242.77 43.5645 1242.59 42.7741" stroke="black" stroke-opacity="0.3" stroke-width="2.5" stroke-linecap="round" stroke-dasharray="8 8"/>
<path d="M258.12 355.582C260.008 384.196 233.828 389.613 220.503 388.744C214.246 399.331 204.994 401.784 201.151 401.688C185.116 398.719 188.637 384.197 192.402 377.307C203.998 373.108 211.428 363.1 213.693 358.621C244.646 330.983 256.208 345.079 258.12 355.582Z" stroke="black" stroke-opacity="0.3" stroke-width="2.5" stroke-linecap="round" stroke-dasharray="8 8"/>
<path d="M233.404 380.115C242.2 378.753 256.329 371.318 242.485 352.479C241.15 350.927 236.66 350.151 229.376 359.469" stroke="black" stroke-opacity="0.3" stroke-width="2.5" stroke-linecap="round" stroke-dasharray="8 8"/>
<path d="M235.655 377.498C239.871 375.049 246.086 368.566 237.221 362.224C234.556 362.228 228.9 363.344 227.595 367.773" stroke="black" stroke-opacity="0.3" stroke-width="2.5" stroke-linecap="round" stroke-dasharray="8 8"/>
<path d="M226.275 376.436C231.328 373.798 238.379 368.875 226.164 370.287" stroke="black" stroke-opacity="0.3" stroke-width="2.5" stroke-linecap="round" stroke-dasharray="8 8"/>
<path d="M201.373 379.087C197.399 383.227 192.845 392.394 206.421 395.94" stroke="black" stroke-opacity="0.3" stroke-width="2.5" stroke-linecap="round" stroke-dasharray="8 8"/>
<path d="M205.479 383.232C202.989 385.713 199.802 391.03 206.979 392.454" stroke="black" stroke-opacity="0.3" stroke-width="2.5" stroke-linecap="round" stroke-dasharray="8 8"/>
<path d="M210.006 394.654C210.889 391.099 210.914 384.843 203.949 388.257" stroke="black" stroke-opacity="0.3" stroke-width="2.5" stroke-linecap="round" stroke-dasharray="8 8"/>
<path d="M217.826 380.754L217.698 363.945C216.189 371.327 212.657 385.456 210.603 382.917C208.55 380.378 207.351 378.275 207.008 377.541" stroke="black" stroke-opacity="0.3" stroke-width="2.5" stroke-linecap="round" stroke-dasharray="8 8"/>
<path d="M363.646 213.219C381.4 235.738 362.886 255.023 351.409 261.85C352.244 274.119 346.006 281.379 342.783 283.475C327.884 290.104 322.566 276.14 321.77 268.329C328.952 258.303 329.411 245.848 328.743 240.873C338.614 200.568 356.125 205.643 363.646 213.219Z" stroke="black" stroke-opacity="0.3" stroke-width="2.5" stroke-linecap="round" stroke-dasharray="8 8"/>
<path d="M357.16 247.434C363.639 241.332 371.078 227.204 349.001 219.512C347.022 218.987 342.881 220.89 342.151 232.694" stroke="black" stroke-opacity="0.3" stroke-width="2.5" stroke-linecap="round" stroke-dasharray="8 8"/>
<path d="M357.534 244.002C359.623 239.597 361.076 230.734 350.178 230.525C347.984 232.037 343.953 236.158 345.384 240.548" stroke="black" stroke-opacity="0.3" stroke-width="2.5" stroke-linecap="round" stroke-dasharray="8 8"/>
<path d="M349.2 248.436C351.872 243.402 354.897 235.351 345.627 243.43" stroke="black" stroke-opacity="0.3" stroke-width="2.5" stroke-linecap="round" stroke-dasharray="8 8"/>
<path d="M330.173 264.718C329.24 270.381 330.675 280.515 343.874 275.754" stroke="black" stroke-opacity="0.3" stroke-width="2.5" stroke-linecap="round" stroke-dasharray="8 8"/>
<path d="M335.904 265.811C335.255 269.265 335.638 275.453 342.361 272.564" stroke="black" stroke-opacity="0.3" stroke-width="2.5" stroke-linecap="round" stroke-dasharray="8 8"/>
<path d="M346.101 272.664C344.817 269.234 341.296 264.063 337.487 270.819" stroke="black" stroke-opacity="0.3" stroke-width="2.5" stroke-linecap="round" stroke-dasharray="8 8"/>
<path d="M344.679 256.778L335.059 242.994C337.993 249.934 343.08 263.581 339.95 262.65C336.819 261.72 334.641 260.665 333.943 260.254" stroke="black" stroke-opacity="0.3" stroke-width="2.5" stroke-linecap="round" stroke-dasharray="8 8"/>
<path d="M495.867 427.386C517.518 446.188 502.936 468.595 492.938 477.448C496.053 489.344 491.282 497.642 488.507 500.304C475.111 509.602 467.276 496.878 465.033 489.354C470.214 478.162 468.336 465.84 466.75 461.078C468.911 419.638 487.061 421.35 495.867 427.386Z" stroke="black" stroke-opacity="0.3" stroke-width="2.5" stroke-linecap="round" stroke-dasharray="8 8"/>
<path d="M495.892 462.21C501.116 455.004 505.782 439.735 482.657 436.306C480.614 436.161 476.902 438.804 478.392 450.537" stroke="black" stroke-opacity="0.3" stroke-width="2.5" stroke-linecap="round" stroke-dasharray="8 8"/>
<path d="M495.618 458.769C496.846 454.051 496.617 445.073 485.872 446.905C483.999 448.8 480.809 453.602 483.037 457.648" stroke="black" stroke-opacity="0.3" stroke-width="2.5" stroke-linecap="round" stroke-dasharray="8 8"/>
<path d="M488.26 464.684C489.943 459.238 491.41 450.764 483.814 460.434" stroke="black" stroke-opacity="0.3" stroke-width="2.5" stroke-linecap="round" stroke-dasharray="8 8"/>
<path d="M472.613 484.236C472.755 489.973 476.059 499.66 488.135 492.515" stroke="black" stroke-opacity="0.3" stroke-width="2.5" stroke-linecap="round" stroke-dasharray="8 8"/>
<path d="M478.447 484.237C478.456 487.752 479.989 493.759 486.053 489.664" stroke="black" stroke-opacity="0.3" stroke-width="2.5" stroke-linecap="round" stroke-dasharray="8 8"/>
<path d="M489.745 489.063C487.843 485.933 483.417 481.512 480.938 488.861" stroke="black" stroke-opacity="0.3" stroke-width="2.5" stroke-linecap="round" stroke-dasharray="8 8"/>
<path d="M485.378 473.724L473.35 461.981C477.531 468.25 485.079 480.705 481.83 480.376C478.581 480.048 476.244 479.419 475.481 479.146" stroke="black" stroke-opacity="0.3" stroke-width="2.5" stroke-linecap="round" stroke-dasharray="8 8"/>
<path d="M129.595 279.482C154.763 293.226 145.303 318.23 137.427 329.014C143.011 339.971 140.123 349.096 137.981 352.289C126.879 364.234 116.507 353.477 112.709 346.606C115.38 334.565 110.914 322.929 108.347 318.616C101.606 277.671 119.704 275.466 129.595 279.482Z" stroke="black" stroke-opacity="0.3" stroke-width="2.5" stroke-linecap="round" stroke-dasharray="8 8"/>
<path d="M137.058 313.497C140.622 305.342 141.919 289.428 118.595 291.018C116.569 291.312 113.507 294.687 117.469 305.831" stroke="black" stroke-opacity="0.3" stroke-width="2.5" stroke-linecap="round" stroke-dasharray="8 8"/>
<path d="M136.055 310.194C136.247 305.322 134.105 296.6 124 300.685C122.575 302.937 120.485 308.309 123.525 311.786" stroke="black" stroke-opacity="0.3" stroke-width="2.5" stroke-linecap="round" stroke-dasharray="8 8"/>
<path d="M130.131 317.543C130.612 311.864 130.235 303.272 124.879 314.341" stroke="black" stroke-opacity="0.3" stroke-width="2.5" stroke-linecap="round" stroke-dasharray="8 8"/>
<path d="M119.02 339.987C120.385 345.561 125.682 354.319 135.953 344.759" stroke="black" stroke-opacity="0.3" stroke-width="2.5" stroke-linecap="round" stroke-dasharray="8 8"/>
<path d="M124.72 338.742C125.48 342.174 128.261 347.714 133.31 342.419" stroke="black" stroke-opacity="0.3" stroke-width="2.5" stroke-linecap="round" stroke-dasharray="8 8"/>
<path d="M136.789 341.043C134.262 338.392 128.994 335.018 128.142 342.727" stroke="black" stroke-opacity="0.3" stroke-width="2.5" stroke-linecap="round" stroke-dasharray="8 8"/>
<path d="M129.246 326.991L114.988 318.088C120.411 323.319 130.445 333.875 127.201 334.247C123.957 334.62 121.539 334.505 120.736 334.401" stroke="black" stroke-opacity="0.3" stroke-width="2.5" stroke-linecap="round" stroke-dasharray="8 8"/>
<path d="M1084.17 219.963C1099.8 244.004 1079.61 261.524 1067.56 267.28C1067.27 279.574 1060.4 286.236 1057 288.03C1041.56 293.277 1037.53 278.886 1037.45 271.035C1045.52 261.704 1047.11 249.342 1046.89 244.327C1060.39 205.087 1077.37 211.734 1084.17 219.963Z" stroke="black" stroke-opacity="0.3" stroke-width="2.5" stroke-linecap="round" stroke-dasharray="8 8"/>
<path d="M1074.6 253.446C1081.6 247.958 1090.3 234.566 1069.01 224.898C1067.09 224.195 1062.79 225.713 1060.99 237.402" stroke="black" stroke-opacity="0.3" stroke-width="2.5" stroke-linecap="round" stroke-dasharray="8 8"/>
<path d="M1075.28 250.063C1077.76 245.866 1080.01 237.172 1069.18 235.972C1066.86 237.278 1062.47 241.015 1063.49 245.518" stroke="black" stroke-opacity="0.3" stroke-width="2.5" stroke-linecap="round" stroke-dasharray="8 8"/>
<path d="M1066.58 253.72C1069.7 248.949 1073.44 241.208 1063.47 248.41" stroke="black" stroke-opacity="0.3" stroke-width="2.5" stroke-linecap="round" stroke-dasharray="8 8"/>
<path d="M1046.15 268.204C1044.7 273.758 1045.21 283.981 1058.79 280.44" stroke="black" stroke-opacity="0.3" stroke-width="2.5" stroke-linecap="round" stroke-dasharray="8 8"/>
<path d="M1051.76 269.813C1050.8 273.195 1050.61 279.391 1057.57 277.126" stroke="black" stroke-opacity="0.3" stroke-width="2.5" stroke-linecap="round" stroke-dasharray="8 8"/>
<path d="M1061.29 277.565C1060.32 274.033 1057.28 268.563 1052.88 274.944" stroke="black" stroke-opacity="0.3" stroke-width="2.5" stroke-linecap="round" stroke-dasharray="8 8"/>
<path d="M1061.32 261.617L1052.99 247.014C1055.28 254.192 1059.1 268.245 1056.07 267.034C1053.04 265.823 1050.97 264.574 1050.31 264.101" stroke="black" stroke-opacity="0.3" stroke-width="2.5" stroke-linecap="round" stroke-dasharray="8 8"/>
<path d="M868.232 119.484C895.973 112.221 906.241 136.904 907.907 150.154C919.486 154.296 923.644 162.917 924.276 166.71C924.392 183.017 909.466 182.304 901.988 179.91C895.673 169.317 884.441 163.913 879.615 162.535C846.623 137.365 858.28 123.347 868.232 119.484Z" stroke="black" stroke-opacity="0.3" stroke-width="2.5" stroke-linecap="round" stroke-dasharray="8 8"/>
<path d="M896.995 139.116C893.994 130.737 884.022 118.267 868.141 135.424C866.869 137.028 866.956 141.584 877.482 146.975" stroke="black" stroke-opacity="0.3" stroke-width="2.5" stroke-linecap="round" stroke-dasharray="8 8"/>
<path d="M894 137.4C890.798 133.724 883.256 128.846 878.705 138.75C879.213 141.366 881.377 146.71 885.974 147.154" stroke="black" stroke-opacity="0.3" stroke-width="2.5" stroke-linecap="round" stroke-dasharray="8 8"/>
<path d="M894.73 146.812C891.184 142.349 885.017 136.356 888.712 148.084" stroke="black" stroke-opacity="0.3" stroke-width="2.5" stroke-linecap="round" stroke-dasharray="8 8"/>
<path d="M902.041 170.764C906.857 173.884 916.719 176.623 917.635 162.622" stroke="black" stroke-opacity="0.3" stroke-width="2.5" stroke-linecap="round" stroke-dasharray="8 8"/>
<path d="M905.335 165.949C908.241 167.925 914.065 170.049 914.107 162.732" stroke="black" stroke-opacity="0.3" stroke-width="2.5" stroke-linecap="round" stroke-dasharray="8 8"/>
<path d="M915.694 159.344C912.037 159.149 905.89 160.307 910.558 166.501" stroke="black" stroke-opacity="0.3" stroke-width="2.5" stroke-linecap="round" stroke-dasharray="8 8"/>
<path d="M900.567 154.293L884.085 157.596C891.619 157.682 906.161 158.48 904.056 160.976C901.952 163.473 900.114 165.048 899.457 165.523" stroke="black" stroke-opacity="0.3" stroke-width="2.5" stroke-linecap="round" stroke-dasharray="8 8"/>
<path d="M55.6632 370.174C83.4041 362.911 93.6722 387.595 95.3386 400.844C106.917 404.987 111.075 413.608 111.707 417.401C111.823 433.707 96.8971 432.995 89.4197 430.6C83.1041 420.007 71.8723 414.603 67.0458 413.226C34.0548 388.056 45.7111 374.037 55.6632 370.174Z" stroke="black" stroke-opacity="0.3" stroke-width="2.5" stroke-linecap="round" stroke-dasharray="8 8"/>
<path d="M84.4265 389.807C81.4256 381.427 71.4536 368.958 55.5722 386.114C54.3 387.718 54.3872 392.274 64.9135 397.665" stroke="black" stroke-opacity="0.3" stroke-width="2.5" stroke-linecap="round" stroke-dasharray="8 8"/>
<path d="M81.4311 388.091C78.2292 384.414 70.6876 379.537 66.1364 389.441C66.6441 392.057 68.8086 397.4 73.4053 397.844" stroke="black" stroke-opacity="0.3" stroke-width="2.5" stroke-linecap="round" stroke-dasharray="8 8"/>
<path d="M82.1613 397.503C78.6155 393.04 72.4478 387.047 76.1438 398.775" stroke="black" stroke-opacity="0.3" stroke-width="2.5" stroke-linecap="round" stroke-dasharray="8 8"/>
<path d="M89.472 421.455C94.2885 424.574 104.151 427.314 105.067 413.312" stroke="black" stroke-opacity="0.3" stroke-width="2.5" stroke-linecap="round" stroke-dasharray="8 8"/>
<path d="M92.7659 416.639C95.6727 418.616 101.497 420.739 101.538 413.423" stroke="black" stroke-opacity="0.3" stroke-width="2.5" stroke-linecap="round" stroke-dasharray="8 8"/>
<path d="M103.126 410.035C99.4683 409.84 93.3207 410.998 97.9891 417.191" stroke="black" stroke-opacity="0.3" stroke-width="2.5" stroke-linecap="round" stroke-dasharray="8 8"/>
<path d="M87.9982 404.983L71.5164 408.286C79.0505 408.373 93.5925 409.17 91.4877 411.667C89.383 414.163 87.5448 415.738 86.8888 416.214" stroke="black" stroke-opacity="0.3" stroke-width="2.5" stroke-linecap="round" stroke-dasharray="8 8"/>
<path d="M1001.76 64.7003C1026.92 78.4529 1017.45 103.454 1009.57 114.235C1015.15 125.194 1012.26 134.318 1010.12 137.51C999.015 149.452 988.647 138.692 984.851 131.819C987.526 119.779 983.064 108.141 980.498 103.827C973.772 62.8798 991.87 60.6811 1001.76 64.7003Z" stroke="black" stroke-opacity="0.3" stroke-width="2.5" stroke-linecap="round" stroke-dasharray="8 8"/>
<path d="M1009.21 98.7183C1012.78 90.564 1014.08 74.6508 990.756 76.2326C988.73 76.5265 985.667 79.9005 989.625 91.0451" stroke="black" stroke-opacity="0.3" stroke-width="2.5" stroke-linecap="round" stroke-dasharray="8 8"/>
<path d="M1008.21 95.415C1008.4 90.5434 1006.26 81.8205 996.158 85.9018C994.732 88.1531 992.64 93.5252 995.679 97.0026" stroke="black" stroke-opacity="0.3" stroke-width="2.5" stroke-linecap="round" stroke-dasharray="8 8"/>
<path d="M1002.28 102.762C1002.77 97.083 1002.39 88.4912 997.032 99.5585" stroke="black" stroke-opacity="0.3" stroke-width="2.5" stroke-linecap="round" stroke-dasharray="8 8"/>
<path d="M991.165 125.202C992.527 130.776 997.822 139.536 1008.1 129.98" stroke="black" stroke-opacity="0.3" stroke-width="2.5" stroke-linecap="round" stroke-dasharray="8 8"/>
<path d="M996.865 123.959C997.623 127.392 1000.4 132.933 1005.45 127.639" stroke="black" stroke-opacity="0.3" stroke-width="2.5" stroke-linecap="round" stroke-dasharray="8 8"/>
<path d="M1008.93 126.264C1006.41 123.612 1001.14 120.236 1000.29 127.945" stroke="black" stroke-opacity="0.3" stroke-width="2.5" stroke-linecap="round" stroke-dasharray="8 8"/>
<path d="M1001.4 112.209L987.139 103.302C992.56 108.535 1002.59 119.094 999.347 119.465C996.103 119.837 993.685 119.721 992.882 119.617" stroke="black" stroke-opacity="0.3" stroke-width="2.5" stroke-linecap="round" stroke-dasharray="8 8"/>
<path d="M929.258 251.764C946.243 274.869 927.088 293.518 915.388 299.955C915.809 312.245 909.33 319.29 906.038 321.276C890.924 327.4 886.08 313.264 885.547 305.43C893.063 295.652 893.942 283.219 893.442 278.225C904.667 238.276 921.997 243.938 929.258 251.764Z" stroke="black" stroke-opacity="0.3" stroke-width="2.5" stroke-linecap="round" stroke-dasharray="8 8"/>
<path d="M921.621 285.74C928.303 279.86 936.214 265.991 914.409 257.559C912.449 256.968 908.246 258.73 907.119 270.503" stroke="black" stroke-opacity="0.3" stroke-width="2.5" stroke-linecap="round" stroke-dasharray="8 8"/>
<path d="M922.111 282.323C924.347 277.991 926.099 269.182 915.214 268.605C912.97 270.042 908.802 274.025 910.085 278.462" stroke="black" stroke-opacity="0.3" stroke-width="2.5" stroke-linecap="round" stroke-dasharray="8 8"/>
<path d="M913.633 286.474C916.473 281.532 919.768 273.588 910.23 281.35" stroke="black" stroke-opacity="0.3" stroke-width="2.5" stroke-linecap="round" stroke-dasharray="8 8"/>
<path d="M894.067 302.105C892.944 307.733 894.036 317.91 907.388 313.596" stroke="black" stroke-opacity="0.3" stroke-width="2.5" stroke-linecap="round" stroke-dasharray="8 8"/>
<path d="M899.758 303.39C898.993 306.821 899.168 313.018 905.984 310.357" stroke="black" stroke-opacity="0.3" stroke-width="2.5" stroke-linecap="round" stroke-dasharray="8 8"/>
<path d="M909.718 310.583C908.55 307.112 905.206 301.825 901.171 308.449" stroke="black" stroke-opacity="0.3" stroke-width="2.5" stroke-linecap="round" stroke-dasharray="8 8"/>
<path d="M908.833 294.659L899.683 280.558C902.382 287.593 907.005 301.403 903.908 300.368C900.811 299.333 898.669 298.205 897.985 297.771" stroke="black" stroke-opacity="0.3" stroke-width="2.5" stroke-linecap="round" stroke-dasharray="8 8"/>
<path d="M122.689 484.795C139.674 507.9 120.519 526.549 108.819 532.986C109.24 545.276 102.761 552.321 99.4685 554.307C84.3547 560.431 79.5107 546.295 78.978 538.462C86.4942 528.684 87.3734 516.251 86.8734 511.256C98.098 471.307 115.428 476.97 122.689 484.795Z" stroke="black" stroke-opacity="0.3" stroke-width="2.5" stroke-linecap="round" stroke-dasharray="8 8"/>
<path d="M115.052 518.772C121.734 512.891 129.645 499.023 107.84 490.59C105.88 490 101.677 491.761 100.55 503.534" stroke="black" stroke-opacity="0.3" stroke-width="2.5" stroke-linecap="round" stroke-dasharray="8 8"/>
<path d="M115.542 515.355C117.778 511.022 119.53 502.213 108.645 501.637C106.401 503.074 102.233 507.057 103.516 511.493" stroke="black" stroke-opacity="0.3" stroke-width="2.5" stroke-linecap="round" stroke-dasharray="8 8"/>
<path d="M107.064 519.505C109.904 514.563 113.199 506.62 103.661 514.381" stroke="black" stroke-opacity="0.3" stroke-width="2.5" stroke-linecap="round" stroke-dasharray="8 8"/>
<path d="M87.4979 535.136C86.375 540.764 87.4672 550.941 100.819 546.628" stroke="black" stroke-opacity="0.3" stroke-width="2.5" stroke-linecap="round" stroke-dasharray="8 8"/>
<path d="M93.1889 536.421C92.4242 539.852 92.5986 546.049 99.4146 543.389" stroke="black" stroke-opacity="0.3" stroke-width="2.5" stroke-linecap="round" stroke-dasharray="8 8"/>
<path d="M103.149 543.614C101.981 540.143 98.637 534.856 94.6023 541.48" stroke="black" stroke-opacity="0.3" stroke-width="2.5" stroke-linecap="round" stroke-dasharray="8 8"/>
<path d="M102.264 527.69L93.1137 513.589C95.8125 520.624 100.436 534.434 97.339 533.399C94.242 532.364 92.1002 531.236 91.4164 530.802" stroke="black" stroke-opacity="0.3" stroke-width="2.5" stroke-linecap="round" stroke-dasharray="8 8"/>
<path d="M1225.69 470.795C1242.67 493.9 1223.52 512.549 1211.82 518.986C1212.24 531.276 1205.76 538.321 1202.47 540.307C1187.35 546.431 1182.51 532.295 1181.98 524.462C1189.49 514.684 1190.37 502.251 1189.87 497.256C1201.1 457.307 1218.43 462.97 1225.69 470.795Z" stroke="black" stroke-opacity="0.3" stroke-width="2.5" stroke-linecap="round" stroke-dasharray="8 8"/>
<path d="M1218.05 504.772C1224.73 498.891 1232.64 485.023 1210.84 476.59C1208.88 476 1204.68 477.761 1203.55 489.534" stroke="black" stroke-opacity="0.3" stroke-width="2.5" stroke-linecap="round" stroke-dasharray="8 8"/>
<path d="M1218.54 501.355C1220.78 497.022 1222.53 488.213 1211.65 487.637C1209.4 489.074 1205.23 493.057 1206.52 497.493" stroke="black" stroke-opacity="0.3" stroke-width="2.5" stroke-linecap="round" stroke-dasharray="8 8"/>
<path d="M1210.06 505.505C1212.9 500.563 1216.2 492.62 1206.66 500.381" stroke="black" stroke-opacity="0.3" stroke-width="2.5" stroke-linecap="round" stroke-dasharray="8 8"/>
<path d="M1190.5 521.136C1189.37 526.764 1190.47 536.941 1203.82 532.628" stroke="black" stroke-opacity="0.3" stroke-width="2.5" stroke-linecap="round" stroke-dasharray="8 8"/>
<path d="M1196.19 522.421C1195.42 525.852 1195.6 532.049 1202.41 529.389" stroke="black" stroke-opacity="0.3" stroke-width="2.5" stroke-linecap="round" stroke-dasharray="8 8"/>
<path d="M1206.15 529.614C1204.98 526.143 1201.64 520.856 1197.6 527.48" stroke="black" stroke-opacity="0.3" stroke-width="2.5" stroke-linecap="round" stroke-dasharray="8 8"/>
<path d="M1205.26 513.69L1196.11 499.589C1198.81 506.624 1203.44 520.434 1200.34 519.399C1197.24 518.364 1195.1 517.236 1194.42 516.802" stroke="black" stroke-opacity="0.3" stroke-width="2.5" stroke-linecap="round" stroke-dasharray="8 8"/>
<path d="M797.689 45.7945C814.673 68.8996 795.519 87.5491 783.819 93.9857C784.24 106.276 777.76 113.321 774.468 115.307C759.354 121.431 754.51 107.295 753.978 99.4613C761.494 89.6833 762.373 77.2503 761.873 72.256C773.098 32.3065 790.427 37.9694 797.689 45.7945Z" stroke="black" stroke-opacity="0.3" stroke-width="2.5" stroke-linecap="round" stroke-dasharray="8 8"/>
<path d="M790.052 79.7714C796.733 73.8911 804.645 60.0224 782.84 51.59C780.88 50.9993 776.677 52.7611 775.55 64.5337" stroke="black" stroke-opacity="0.3" stroke-width="2.5" stroke-linecap="round" stroke-dasharray="8 8"/>
<path d="M790.542 76.3544C792.778 72.0221 794.529 63.2131 783.645 62.6365C781.401 64.0734 777.233 68.0564 778.516 72.4927" stroke="black" stroke-opacity="0.3" stroke-width="2.5" stroke-linecap="round" stroke-dasharray="8 8"/>
<path d="M782.064 80.505C784.903 75.563 788.199 67.6194 778.661 75.3812" stroke="black" stroke-opacity="0.3" stroke-width="2.5" stroke-linecap="round" stroke-dasharray="8 8"/>
<path d="M762.498 96.1361C761.375 101.764 762.467 111.941 775.819 107.627" stroke="black" stroke-opacity="0.3" stroke-width="2.5" stroke-linecap="round" stroke-dasharray="8 8"/>
<path d="M768.189 97.4211C767.424 100.852 767.598 107.049 774.414 104.388" stroke="black" stroke-opacity="0.3" stroke-width="2.5" stroke-linecap="round" stroke-dasharray="8 8"/>
<path d="M778.149 104.614C776.981 101.143 773.637 95.8559 769.602 102.48" stroke="black" stroke-opacity="0.3" stroke-width="2.5" stroke-linecap="round" stroke-dasharray="8 8"/>
<path d="M777.264 88.6899L768.113 74.5891C770.812 81.6238 775.436 95.4342 772.339 94.3989C769.242 93.3636 767.1 92.236 766.416 91.8016" stroke="black" stroke-opacity="0.3" stroke-width="2.5" stroke-linecap="round" stroke-dasharray="8 8"/>
<path d="M552.453 511.545C578.329 499.188 593.062 521.496 597.194 534.194C609.346 536.082 615.053 543.766 616.388 547.372C619.573 563.365 604.78 565.476 596.985 564.533C588.788 555.318 576.739 552.127 571.74 551.683C534.599 533.176 543.406 517.213 552.453 511.545Z" stroke="black" stroke-opacity="0.3" stroke-width="2.5" stroke-linecap="round" stroke-dasharray="8 8"/>
<path d="M584.399 525.409C579.873 517.745 567.732 507.377 555.365 527.217C554.418 529.032 555.362 533.49 566.715 536.802" stroke="black" stroke-opacity="0.3" stroke-width="2.5" stroke-linecap="round" stroke-dasharray="8 8"/>
<path d="M581.134 524.288C577.297 521.28 568.972 517.911 566.367 528.495C567.358 530.968 570.49 535.808 575.088 535.379" stroke="black" stroke-opacity="0.3" stroke-width="2.5" stroke-linecap="round" stroke-dasharray="8 8"/>
<path d="M583.623 533.394C579.301 529.679 572.115 524.955 577.953 535.777" stroke="black" stroke-opacity="0.3" stroke-width="2.5" stroke-linecap="round" stroke-dasharray="8 8"/>
<path d="M595.314 555.541C600.632 557.698 610.833 558.531 609.096 544.607" stroke="black" stroke-opacity="0.3" stroke-width="2.5" stroke-linecap="round" stroke-dasharray="8 8"/>
<path d="M597.642 550.191C600.869 551.585 606.989 552.574 605.652 545.38" stroke="black" stroke-opacity="0.3" stroke-width="2.5" stroke-linecap="round" stroke-dasharray="8 8"/>
<path d="M606.573 541.754C602.944 542.251 597.125 544.546 602.876 549.75" stroke="black" stroke-opacity="0.3" stroke-width="2.5" stroke-linecap="round" stroke-dasharray="8 8"/>
<path d="M590.765 539.642L575.2 545.99C582.615 544.656 597.047 542.7 595.45 545.548C593.854 548.397 592.345 550.29 591.79 550.88" stroke="black" stroke-opacity="0.3" stroke-width="2.5" stroke-linecap="round" stroke-dasharray="8 8"/>
<path d="M732.553 456.93C743.166 483.569 719.93 496.79 706.986 500.07C704.296 512.07 696.251 517.255 692.564 518.347C676.395 520.464 675.27 505.564 676.728 497.849C686.466 490.281 690.45 478.471 691.224 473.512C712.154 437.68 727.497 447.527 732.553 456.93Z" stroke="black" stroke-opacity="0.3" stroke-width="2.5" stroke-linecap="round" stroke-dasharray="8 8"/>
<path d="M716.6 487.886C724.548 483.879 735.698 472.451 716.722 458.796C714.974 457.731 710.463 458.376 706.405 469.485" stroke="black" stroke-opacity="0.3" stroke-width="2.5" stroke-linecap="round" stroke-dasharray="8 8"/>
<path d="M717.935 484.702C721.191 481.073 725.105 472.99 714.718 469.689C712.184 470.514 707.147 473.318 707.27 477.935" stroke="black" stroke-opacity="0.3" stroke-width="2.5" stroke-linecap="round" stroke-dasharray="8 8"/>
<path d="M708.684 486.582C712.678 482.515 717.869 475.659 706.683 480.766" stroke="black" stroke-opacity="0.3" stroke-width="2.5" stroke-linecap="round" stroke-dasharray="8 8"/>
<path d="M685.811 496.778C683.306 501.941 681.798 512.065 695.806 511.255" stroke="black" stroke-opacity="0.3" stroke-width="2.5" stroke-linecap="round" stroke-dasharray="8 8"/>
<path d="M690.994 499.456C689.39 502.584 687.997 508.624 695.263 507.767" stroke="black" stroke-opacity="0.3" stroke-width="2.5" stroke-linecap="round" stroke-dasharray="8 8"/>
<path d="M698.821 508.927C698.565 505.273 696.661 499.314 691.087 504.708" stroke="black" stroke-opacity="0.3" stroke-width="2.5" stroke-linecap="round" stroke-dasharray="8 8"/>
<path d="M701.977 493.294L696.675 477.342C697.514 484.83 698.508 499.36 695.772 497.577C693.036 495.795 691.247 494.164 690.695 493.571" stroke="black" stroke-opacity="0.3" stroke-width="2.5" stroke-linecap="round" stroke-dasharray="8 8"/>
<path d="M867.658 421.66C878.272 448.299 855.036 461.52 842.091 464.8C839.401 476.8 831.356 481.985 827.67 483.078C811.5 485.195 810.375 470.294 811.833 462.58C821.571 455.011 825.555 443.201 826.33 438.242C847.259 402.41 862.602 412.257 867.658 421.66Z" stroke="black" stroke-opacity="0.3" stroke-width="2.5" stroke-linecap="round" stroke-dasharray="8 8"/>
<path d="M851.705 452.616C859.653 448.609 870.804 437.181 851.828 423.526C850.079 422.461 845.568 423.107 841.511 434.215" stroke="black" stroke-opacity="0.3" stroke-width="2.5" stroke-linecap="round" stroke-dasharray="8 8"/>
<path d="M853.04 449.432C856.296 445.803 860.211 437.72 849.823 434.419C847.289 435.244 842.252 438.048 842.375 442.665" stroke="black" stroke-opacity="0.3" stroke-width="2.5" stroke-linecap="round" stroke-dasharray="8 8"/>
<path d="M843.79 451.312C847.783 447.246 852.974 440.389 841.788 445.497" stroke="black" stroke-opacity="0.3" stroke-width="2.5" stroke-linecap="round" stroke-dasharray="8 8"/>
<path d="M820.916 461.509C818.412 466.672 816.904 476.795 830.912 475.986" stroke="black" stroke-opacity="0.3" stroke-width="2.5" stroke-linecap="round" stroke-dasharray="8 8"/>
<path d="M826.1 464.186C824.495 467.314 823.102 473.354 830.369 472.498" stroke="black" stroke-opacity="0.3" stroke-width="2.5" stroke-linecap="round" stroke-dasharray="8 8"/>
<path d="M833.926 473.657C833.671 470.003 831.767 464.044 826.193 469.438" stroke="black" stroke-opacity="0.3" stroke-width="2.5" stroke-linecap="round" stroke-dasharray="8 8"/>
<path d="M837.082 458.024L831.781 442.072C832.62 449.56 833.614 464.09 830.878 462.308C828.141 460.525 826.353 458.894 825.801 458.302" stroke="black" stroke-opacity="0.3" stroke-width="2.5" stroke-linecap="round" stroke-dasharray="8 8"/>
<path d="M516.658 332.66C527.272 359.299 504.036 372.52 491.091 375.8C488.401 387.8 480.356 392.985 476.67 394.078C460.501 396.195 459.375 381.294 460.834 373.58C470.571 366.011 474.555 354.201 475.33 349.242C496.259 313.41 511.603 323.257 516.658 332.66Z" stroke="black" stroke-opacity="0.3" stroke-width="2.5" stroke-linecap="round" stroke-dasharray="8 8"/>
<path d="M500.706 363.616C508.653 359.609 519.804 348.181 500.828 334.526C499.08 333.461 494.569 334.107 490.511 345.215" stroke="black" stroke-opacity="0.3" stroke-width="2.5" stroke-linecap="round" stroke-dasharray="8 8"/>
<path d="M502.041 360.432C505.296 356.803 509.211 348.72 498.823 345.419C496.289 346.244 491.252 349.048 491.375 353.665" stroke="black" stroke-opacity="0.3" stroke-width="2.5" stroke-linecap="round" stroke-dasharray="8 8"/>
<path d="M492.79 362.312C496.783 358.246 501.974 351.389 490.788 356.497" stroke="black" stroke-opacity="0.3" stroke-width="2.5" stroke-linecap="round" stroke-dasharray="8 8"/>
<path d="M469.916 372.509C467.412 377.672 465.904 387.795 479.912 386.986" stroke="black" stroke-opacity="0.3" stroke-width="2.5" stroke-linecap="round" stroke-dasharray="8 8"/>
<path d="M475.1 375.186C473.495 378.314 472.103 384.354 479.369 383.498" stroke="black" stroke-opacity="0.3" stroke-width="2.5" stroke-linecap="round" stroke-dasharray="8 8"/>
<path d="M482.926 384.657C482.671 381.003 480.767 375.044 475.193 380.438" stroke="black" stroke-opacity="0.3" stroke-width="2.5" stroke-linecap="round" stroke-dasharray="8 8"/>
<path d="M486.082 369.024L480.781 353.072C481.62 360.56 482.614 375.09 479.878 373.308C477.142 371.525 475.353 369.894 474.801 369.302" stroke="black" stroke-opacity="0.3" stroke-width="2.5" stroke-linecap="round" stroke-dasharray="8 8"/>
<path d="M992.998 414.102C965.823 423.257 953.88 399.34 951.305 386.236C939.469 382.9 934.727 374.586 933.836 370.846C932.598 354.586 947.537 354.269 955.161 356.143C962.191 366.276 973.769 370.894 978.678 371.936C1013.32 394.776 1002.66 409.563 992.998 414.102Z" stroke="black" stroke-opacity="0.3" stroke-width="2.5" stroke-linecap="round" stroke-dasharray="8 8"/>
<path d="M962.951 396.496C966.522 404.649 977.329 416.402 991.991 398.194C993.15 396.506 992.749 391.966 981.877 387.313" stroke="black" stroke-opacity="0.3" stroke-width="2.5" stroke-linecap="round" stroke-dasharray="8 8"/>
<path d="M966.058 398.002C969.505 401.449 977.364 405.796 981.223 395.602C980.536 393.027 978.009 387.846 973.393 387.719" stroke="black" stroke-opacity="0.3" stroke-width="2.5" stroke-linecap="round" stroke-dasharray="8 8"/>
<path d="M964.681 388.663C968.526 392.871 975.091 398.425 970.597 386.979" stroke="black" stroke-opacity="0.3" stroke-width="2.5" stroke-linecap="round" stroke-dasharray="8 8"/>
<path d="M955.739 365.271C950.719 362.49 940.692 360.436 940.742 374.467" stroke="black" stroke-opacity="0.3" stroke-width="2.5" stroke-linecap="round" stroke-dasharray="8 8"/>
<path d="M952.784 370.302C949.748 368.53 943.792 366.812 944.254 374.114" stroke="black" stroke-opacity="0.3" stroke-width="2.5" stroke-linecap="round" stroke-dasharray="8 8"/>
<path d="M942.904 377.604C946.566 377.547 952.619 375.968 947.536 370.11" stroke="black" stroke-opacity="0.3" stroke-width="2.5" stroke-linecap="round" stroke-dasharray="8 8"/>
<path d="M958.343 381.601L974.558 377.172C967.036 377.604 952.474 377.81 954.402 375.174C956.33 372.539 958.055 370.841 958.677 370.322" stroke="black" stroke-opacity="0.3" stroke-width="2.5" stroke-linecap="round" stroke-dasharray="8 8"/>
<path d="M155.998 91.1017C128.823 100.257 116.88 76.3393 114.305 63.2359C102.469 59.9002 97.7273 51.5859 96.8361 47.8457C95.5978 31.5856 110.537 31.2688 118.162 33.1429C125.192 43.2762 136.769 47.8938 141.679 48.936C176.324 71.7753 165.661 86.5628 155.998 91.1017Z" stroke="black" stroke-opacity="0.3" stroke-width="2.5" stroke-linecap="round" stroke-dasharray="8 8"/>
<path d="M125.951 73.496C129.522 81.6488 140.329 93.4022 154.992 75.1934C156.15 73.5055 155.75 68.9662 144.877 64.3127" stroke="black" stroke-opacity="0.3" stroke-width="2.5" stroke-linecap="round" stroke-dasharray="8 8"/>
<path d="M129.058 75.0016C132.505 78.4492 140.365 82.7958 144.223 72.602C143.537 70.0271 141.01 64.8456 136.393 64.7187" stroke="black" stroke-opacity="0.3" stroke-width="2.5" stroke-linecap="round" stroke-dasharray="8 8"/>
<path d="M127.681 65.6626C131.526 69.8705 138.092 75.4249 133.597 63.9791" stroke="black" stroke-opacity="0.3" stroke-width="2.5" stroke-linecap="round" stroke-dasharray="8 8"/>
<path d="M118.739 42.2705C113.719 39.4898 103.692 37.436 103.742 51.4672" stroke="black" stroke-opacity="0.3" stroke-width="2.5" stroke-linecap="round" stroke-dasharray="8 8"/>
<path d="M115.785 47.3013C112.749 45.5296 106.792 43.8118 107.254 51.1139" stroke="black" stroke-opacity="0.3" stroke-width="2.5" stroke-linecap="round" stroke-dasharray="8 8"/>
<path d="M105.904 54.6034C109.566 54.5463 115.619 52.9676 110.536 47.1099" stroke="black" stroke-opacity="0.3" stroke-width="2.5" stroke-linecap="round" stroke-dasharray="8 8"/>
<path d="M121.343 58.6013L137.559 54.1715C130.037 54.6038 115.474 54.8094 117.402 52.1739C119.33 49.5383 121.055 47.8407 121.677 47.3213" stroke="black" stroke-opacity="0.3" stroke-width="2.5" stroke-linecap="round" stroke-dasharray="8 8"/>
<path d="M1027 515.102C999.823 524.258 987.88 500.34 985.305 487.236C973.469 483.901 968.727 475.586 967.836 471.846C966.598 455.586 981.537 455.269 989.162 457.143C996.191 467.277 1007.77 471.894 1012.68 472.936C1047.32 495.776 1036.66 510.563 1027 515.102Z" stroke="black" stroke-opacity="0.3" stroke-width="2.5" stroke-linecap="round" stroke-dasharray="8 8"/>
<path d="M996.951 497.497C1000.52 505.649 1011.33 517.403 1025.99 499.194C1027.15 497.506 1026.75 492.967 1015.88 488.313" stroke="black" stroke-opacity="0.3" stroke-width="2.5" stroke-linecap="round" stroke-dasharray="8 8"/>
<path d="M1000.06 499.002C1003.51 502.45 1011.36 506.796 1015.22 496.602C1014.54 494.028 1012.01 488.846 1007.39 488.719" stroke="black" stroke-opacity="0.3" stroke-width="2.5" stroke-linecap="round" stroke-dasharray="8 8"/>
<path d="M998.681 489.663C1002.53 493.871 1009.09 499.425 1004.6 487.98" stroke="black" stroke-opacity="0.3" stroke-width="2.5" stroke-linecap="round" stroke-dasharray="8 8"/>
<path d="M989.739 466.271C984.719 463.49 974.692 461.437 974.742 475.468" stroke="black" stroke-opacity="0.3" stroke-width="2.5" stroke-linecap="round" stroke-dasharray="8 8"/>
<path d="M986.784 471.302C983.749 469.53 977.792 467.812 978.254 475.114" stroke="black" stroke-opacity="0.3" stroke-width="2.5" stroke-linecap="round" stroke-dasharray="8 8"/>
<path d="M976.904 478.604C980.566 478.547 986.619 476.968 981.536 471.11" stroke="black" stroke-opacity="0.3" stroke-width="2.5" stroke-linecap="round" stroke-dasharray="8 8"/>
<path d="M992.343 482.602L1008.56 478.172C1001.04 478.604 986.474 478.81 988.402 476.174C990.33 473.539 992.055 471.841 992.677 471.322" stroke="black" stroke-opacity="0.3" stroke-width="2.5" stroke-linecap="round" stroke-dasharray="8 8"/>
<path d="M424.998 580.102C397.823 589.258 385.88 565.34 383.305 552.236C371.469 548.901 366.727 540.586 365.836 536.846C364.598 520.586 379.537 520.269 387.162 522.143C394.192 532.277 405.769 536.894 410.679 537.936C445.324 560.776 434.661 575.563 424.998 580.102Z" stroke="black" stroke-opacity="0.3" stroke-width="2.5" stroke-linecap="round" stroke-dasharray="8 8"/>
<path d="M394.951 562.497C398.522 570.649 409.329 582.403 423.992 564.194C425.15 562.506 424.75 557.967 413.877 553.313" stroke="black" stroke-opacity="0.3" stroke-width="2.5" stroke-linecap="round" stroke-dasharray="8 8"/>
<path d="M398.058 564.002C401.505 567.45 409.365 571.796 413.223 561.602C412.537 559.028 410.01 553.846 405.393 553.719" stroke="black" stroke-opacity="0.3" stroke-width="2.5" stroke-linecap="round" stroke-dasharray="8 8"/>
<path d="M396.681 554.663C400.526 558.871 407.092 564.425 402.597 552.98" stroke="black" stroke-opacity="0.3" stroke-width="2.5" stroke-linecap="round" stroke-dasharray="8 8"/>
<path d="M387.739 531.271C382.719 528.49 372.692 526.437 372.742 540.468" stroke="black" stroke-opacity="0.3" stroke-width="2.5" stroke-linecap="round" stroke-dasharray="8 8"/>
<path d="M384.785 536.302C381.749 534.53 375.792 532.812 376.254 540.114" stroke="black" stroke-opacity="0.3" stroke-width="2.5" stroke-linecap="round" stroke-dasharray="8 8"/>
<path d="M374.904 543.604C378.566 543.547 384.619 541.968 379.536 536.11" stroke="black" stroke-opacity="0.3" stroke-width="2.5" stroke-linecap="round" stroke-dasharray="8 8"/>
<path d="M390.343 547.602L406.559 543.172C399.037 543.604 384.474 543.81 386.402 541.174C388.33 538.539 390.055 536.841 390.677 536.322" stroke="black" stroke-opacity="0.3" stroke-width="2.5" stroke-linecap="round" stroke-dasharray="8 8"/>
<path d="M413.998 98.1017C386.823 107.257 374.88 83.3393 372.305 70.2359C360.469 66.9002 355.727 58.5859 354.836 54.8457C353.598 38.5856 368.537 38.2688 376.162 40.1429C383.192 50.2762 394.769 54.8938 399.679 55.936C434.324 78.7753 423.661 93.5628 413.998 98.1017Z" stroke="black" stroke-opacity="0.3" stroke-width="2.5" stroke-linecap="round" stroke-dasharray="8 8"/>
<path d="M383.951 80.496C387.522 88.6488 398.329 100.402 412.992 82.1934C414.15 80.5055 413.75 75.9662 402.877 71.3127" stroke="black" stroke-opacity="0.3" stroke-width="2.5" stroke-linecap="round" stroke-dasharray="8 8"/>
<path d="M387.058 82.0016C390.505 85.4492 398.365 89.7958 402.223 79.602C401.537 77.0271 399.01 71.8456 394.393 71.7187" stroke="black" stroke-opacity="0.3" stroke-width="2.5" stroke-linecap="round" stroke-dasharray="8 8"/>
<path d="M385.681 72.6626C389.526 76.8705 396.092 82.4249 391.597 70.9791" stroke="black" stroke-opacity="0.3" stroke-width="2.5" stroke-linecap="round" stroke-dasharray="8 8"/>
<path d="M376.739 49.2705C371.719 46.4898 361.692 44.436 361.742 58.4672" stroke="black" stroke-opacity="0.3" stroke-width="2.5" stroke-linecap="round" stroke-dasharray="8 8"/>
<path d="M373.785 54.3013C370.749 52.5296 364.792 50.8118 365.254 58.1139" stroke="black" stroke-opacity="0.3" stroke-width="2.5" stroke-linecap="round" stroke-dasharray="8 8"/>
<path d="M363.904 61.6034C367.566 61.5463 373.619 59.9676 368.536 54.1099" stroke="black" stroke-opacity="0.3" stroke-width="2.5" stroke-linecap="round" stroke-dasharray="8 8"/>
<path d="M379.343 65.6013L395.559 61.1715C388.037 61.6038 373.474 61.8094 375.402 59.1739C377.33 56.5383 379.055 54.8407 379.677 54.3213" stroke="black" stroke-opacity="0.3" stroke-width="2.5" stroke-linecap="round" stroke-dasharray="8 8"/>
<path d="M816.998 575.102C789.823 584.258 777.88 560.34 775.305 547.236C763.469 543.901 758.727 535.586 757.836 531.846C756.598 515.586 771.537 515.269 779.162 517.143C786.191 527.277 797.769 531.894 802.678 532.936C837.324 555.776 826.66 570.563 816.998 575.102Z" stroke="black" stroke-opacity="0.3" stroke-width="2.5" stroke-linecap="round" stroke-dasharray="8 8"/>
<path d="M786.951 557.497C790.522 565.649 801.329 577.403 815.991 559.194C817.15 557.506 816.749 552.967 805.877 548.313" stroke="black" stroke-opacity="0.3" stroke-width="2.5" stroke-linecap="round" stroke-dasharray="8 8"/>
<path d="M790.058 559.002C793.505 562.45 801.364 566.796 805.223 556.602C804.536 554.028 802.009 548.846 797.393 548.719" stroke="black" stroke-opacity="0.3" stroke-width="2.5" stroke-linecap="round" stroke-dasharray="8 8"/>
<path d="M788.681 549.663C792.526 553.871 799.092 559.425 794.597 547.98" stroke="black" stroke-opacity="0.3" stroke-width="2.5" stroke-linecap="round" stroke-dasharray="8 8"/>
<path d="M779.739 526.271C774.719 523.49 764.692 521.437 764.742 535.468" stroke="black" stroke-opacity="0.3" stroke-width="2.5" stroke-linecap="round" stroke-dasharray="8 8"/>
<path d="M776.784 531.302C773.749 529.53 767.792 527.812 768.254 535.114" stroke="black" stroke-opacity="0.3" stroke-width="2.5" stroke-linecap="round" stroke-dasharray="8 8"/>
<path d="M766.904 538.604C770.566 538.547 776.619 536.968 771.536 531.11" stroke="black" stroke-opacity="0.3" stroke-width="2.5" stroke-linecap="round" stroke-dasharray="8 8"/>
<path d="M782.343 542.602L798.559 538.172C791.036 538.604 776.474 538.81 778.402 536.174C780.33 533.539 782.055 531.841 782.677 531.322" stroke="black" stroke-opacity="0.3" stroke-width="2.5" stroke-linecap="round" stroke-dasharray="8 8"/>
<path d="M1164 94.1017C1136.82 103.257 1124.88 79.3393 1122.31 66.2359C1110.47 62.9002 1105.73 54.5859 1104.84 50.8457C1103.6 34.5856 1118.54 34.2688 1126.16 36.1429C1133.19 46.2762 1144.77 50.8938 1149.68 51.936C1184.32 74.7753 1173.66 89.5628 1164 94.1017Z" stroke="black" stroke-opacity="0.3" stroke-width="2.5" stroke-linecap="round" stroke-dasharray="8 8"/>
<path d="M1133.95 76.496C1137.52 84.6488 1148.33 96.4022 1162.99 78.1934C1164.15 76.5055 1163.75 71.9662 1152.88 67.3127" stroke="black" stroke-opacity="0.3" stroke-width="2.5" stroke-linecap="round" stroke-dasharray="8 8"/>
<path d="M1137.06 78.0016C1140.51 81.4492 1148.36 85.7958 1152.22 75.602C1151.54 73.0271 1149.01 67.8456 1144.39 67.7187" stroke="black" stroke-opacity="0.3" stroke-width="2.5" stroke-linecap="round" stroke-dasharray="8 8"/>
<path d="M1135.68 68.6626C1139.53 72.8705 1146.09 78.4249 1141.6 66.9791" stroke="black" stroke-opacity="0.3" stroke-width="2.5" stroke-linecap="round" stroke-dasharray="8 8"/>
<path d="M1126.74 45.2705C1121.72 42.4898 1111.69 40.436 1111.74 54.4672" stroke="black" stroke-opacity="0.3" stroke-width="2.5" stroke-linecap="round" stroke-dasharray="8 8"/>
<path d="M1123.78 50.3013C1120.75 48.5296 1114.79 46.8118 1115.25 54.1139" stroke="black" stroke-opacity="0.3" stroke-width="2.5" stroke-linecap="round" stroke-dasharray="8 8"/>
<path d="M1113.9 57.6034C1117.57 57.5463 1123.62 55.9676 1118.54 50.1099" stroke="black" stroke-opacity="0.3" stroke-width="2.5" stroke-linecap="round" stroke-dasharray="8 8"/>
<path d="M1129.34 61.6013L1145.56 57.1715C1138.04 57.6038 1123.47 57.8094 1125.4 55.1739C1127.33 52.5383 1129.06 50.8407 1129.68 50.3213" stroke="black" stroke-opacity="0.3" stroke-width="2.5" stroke-linecap="round" stroke-dasharray="8 8"/>
<path d="M727 121.002L569 228.002" stroke="black" stroke-width="5.5" stroke-linecap="round"/>
<path d="M872.605 326.129L854.601 314.002" stroke="black" stroke-width="1.41919" stroke-linecap="round"/>
<path d="M854.813 280.558L831 265.699" stroke="black" stroke-width="1.41919" stroke-linecap="round"/>
<path d="M839.344 297.698C841.19 290.699 835.125 287.922 835.125 287.922" stroke="black" stroke-width="1.41919" stroke-linecap="round"/>
<circle r="11.6728" transform="matrix(-0.420574 -0.907258 -0.907258 0.420574 843.846 309.181)" stroke="black" stroke-width="1.41919"/>
<circle r="11.6728" transform="matrix(-0.420574 -0.907258 -0.907258 0.420574 828.657 277.429)" stroke="black" stroke-width="1.41919"/>
</g>
<defs>
<filter id="filter0_dddd" x="550.75" y="170.094" width="271.5" height="290.157" filterUnits="userSpaceOnUse" color-interpolation-filters="sRGB">
<feFlood flood-opacity="0" result="BackgroundImageFix"/>
<feColorMatrix in="SourceAlpha" type="matrix" values="0 0 0 0 0 0 0 0 0 0 0 0 0 0 0 0 0 0 127 0" result="hardAlpha"/>
<feOffset dy="4"/>
<feGaussianBlur stdDeviation="2"/>
<feComposite in2="hardAlpha" operator="out"/>
<feColorMatrix type="matrix" values="0 0 0 0 0 0 0 0 0 0 0 0 0 0 0 0 0 0 0.25 0"/>
<feBlend mode="normal" in2="BackgroundImageFix" result="effect1_dropShadow"/>
<feColorMatrix in="SourceAlpha" type="matrix" values="0 0 0 0 0 0 0 0 0 0 0 0 0 0 0 0 0 0 127 0" result="hardAlpha"/>
<feOffset dy="-4"/>
<feGaussianBlur stdDeviation="2"/>
<feComposite in2="hardAlpha" operator="out"/>
<feColorMatrix type="matrix" values="0 0 0 0 0 0 0 0 0 0 0 0 0 0 0 0 0 0 0.25 0"/>
<feBlend mode="normal" in2="effect1_dropShadow" result="effect2_dropShadow"/>
<feColorMatrix in="SourceAlpha" type="matrix" values="0 0 0 0 0 0 0 0 0 0 0 0 0 0 0 0 0 0 127 0" result="hardAlpha"/>
<feOffset dx="4"/>
<feGaussianBlur stdDeviation="2"/>
<feComposite in2="hardAlpha" operator="out"/>
<feColorMatrix type="matrix" values="0 0 0 0 0 0 0 0 0 0 0 0 0 0 0 0 0 0 0.25 0"/>
<feBlend mode="normal" in2="effect2_dropShadow" result="effect3_dropShadow"/>
<feColorMatrix in="SourceAlpha" type="matrix" values="0 0 0 0 0 0 0 0 0 0 0 0 0 0 0 0 0 0 127 0" result="hardAlpha"/>
<feOffset dx="-4"/>
<feGaussianBlur stdDeviation="2"/>
<feComposite in2="hardAlpha" operator="out"/>
<feColorMatrix type="matrix" values="0 0 0 0 0 0 0 0 0 0 0 0 0 0 0 0 0 0 0.25 0"/>
<feBlend mode="normal" in2="effect3_dropShadow" result="effect4_dropShadow"/>
<feBlend mode="normal" in="SourceGraphic" in2="effect4_dropShadow" result="shape"/>
</filter>
</defs>
</svg>
